<svg width="18" height="18" viewBox="0 0 18 18" fill="none" xmlns="http://www.w3.org/2000/svg">
<path d="M4.875 13.125V10.875M8.625 13.125V6.375M12.375 13.125V10.125M16.125 4.125C16.125 4.72174 15.8879 5.29403 15.466 5.71599C15.044 6.13795 14.4717 6.375 13.875 6.375C13.2783 6.375 12.706 6.13795 12.284 5.71599C11.8621 5.29403 11.625 4.72174 11.625 4.125C11.625 3.52826 11.8621 2.95597 12.284 2.53401C12.706 2.11205 13.2783 1.875 13.875 1.875C14.4717 1.875 15.044 2.11205 15.466 2.53401C15.8879 2.95597 16.125 3.52826 16.125 4.125Z" stroke="#4126A8" stroke-linecap="round" stroke-linejoin="round"/>
<path d="M16.122 8.25C16.122 8.25 16.125 8.505 16.125 9C16.125 12.3585 16.125 14.0385 15.0817 15.0817C14.0385 16.125 12.3593 16.125 9 16.125C5.6415 16.125 3.9615 16.125 2.91825 15.0817C1.875 14.0385 1.875 12.3593 1.875 9C1.875 5.6415 1.875 3.96225 2.91825 2.91825C3.9615 1.875 5.64075 1.875 9 1.875H9.75" stroke="#4126A8" stroke-linecap="round" stroke-linejoin="round"/>
</svg>
