<svg width="40" height="40" viewBox="0 0 40 40" fill="none" xmlns="http://www.w3.org/2000/svg">
<g clip-path="url(#clip0_2917_20)">
<path d="M24 0H16C7.16344 0 0 7.16344 0 16V24C0 32.8366 7.16344 40 16 40H24C32.8366 40 40 32.8366 40 24V16C40 7.16344 32.8366 0 24 0Z" fill="white" fill-opacity="0.2"/>
<path d="M24.9402 26.3581H26.7219C26.8786 26.3606 27.0336 26.3251 27.1736 26.2546C27.3136 26.1841 27.4345 26.0808 27.5259 25.9535C27.6172 25.8261 27.6764 25.6786 27.6984 25.5234C27.7203 25.3682 27.7044 25.21 27.6519 25.0623C27.1976 24.0899 26.4784 23.2653 25.5767 22.683C24.6751 22.1008 23.6276 21.7846 22.5544 21.7706M22.5544 19.4715C22.9554 19.4716 23.3526 19.3927 23.7231 19.2393C24.0937 19.0859 24.4304 18.861 24.714 18.5775C24.9976 18.2939 25.2226 17.9573 25.3761 17.5868C25.5296 17.2163 25.6086 16.8192 25.6086 16.4181C25.6097 16.0164 25.5315 15.6184 25.3785 15.2469C25.2255 14.8754 25.0007 14.5378 24.7169 14.2534C24.4332 13.969 24.0961 13.7434 23.725 13.5894C23.354 13.4355 22.9561 13.3563 22.5544 13.3565M17.7836 19.5673C18.7017 19.5651 19.5814 19.1988 20.2298 18.5487C20.8781 17.8986 21.2421 17.0179 21.2419 16.0998C21.2419 15.1824 20.8775 14.3025 20.2287 13.6538C19.58 13.0051 18.7002 12.6406 17.7827 12.6406C16.8653 12.6406 15.9855 13.0051 15.3367 13.6538C14.688 14.3025 14.3236 15.1824 14.3236 16.0998C14.3236 17.0179 14.6878 17.8985 15.3363 18.5484C15.9848 19.1984 16.8646 19.5645 17.7827 19.5665M21.6877 27.3523C21.9813 27.3519 22.269 27.2702 22.5189 27.1164C22.7689 26.9626 22.9714 26.7425 23.1041 26.4806C23.2367 26.2188 23.2942 25.9253 23.2703 25.6328C23.2464 25.3402 23.1419 25.06 22.9686 24.8231C22.3612 24.0169 21.5792 23.3585 20.6813 22.8972C19.7834 22.436 18.7927 22.1839 17.7836 22.1598C16.7743 22.184 15.7836 22.4362 14.8857 22.8976C13.9878 23.359 13.2059 24.0175 12.5986 24.824C12.4258 25.0608 12.3218 25.3408 12.2982 25.6331C12.2745 25.9253 12.3321 26.2184 12.4645 26.48C12.5969 26.7416 12.7991 26.9615 13.0486 27.1154C13.2981 27.2694 13.5854 27.3513 13.8786 27.3523H21.6877Z" stroke="white" stroke-width="1.2" stroke-linecap="round" stroke-linejoin="round"/>
</g>
<defs>
<clipPath id="clip0_2917_20">
<rect width="40" height="40" fill="white"/>
</clipPath>
</defs>
</svg>
