<svg width="40" height="40" viewBox="0 0 40 40" fill="none" xmlns="http://www.w3.org/2000/svg">
<g clip-path="url(#clip0_2917_26)">
<path d="M24 0H16C7.16344 0 0 7.16344 0 16V24C0 32.8366 7.16344 40 16 40H24C32.8366 40 40 32.8366 40 24V16C40 7.16344 32.8366 0 24 0Z" fill="#E8E2FF"/>
<path d="M23.7789 18.0331C23.8526 17.9644 23.9117 17.8816 23.9527 17.7896C23.9936 17.6976 24.0157 17.5983 24.0175 17.4976C24.0192 17.3969 24.0007 17.2969 23.963 17.2035C23.9253 17.1101 23.8691 17.0253 23.7979 16.954C23.7267 16.8828 23.6419 16.8267 23.5485 16.789C23.4551 16.7512 23.3551 16.7327 23.2543 16.7345C23.1536 16.7363 23.0543 16.7583 22.9623 16.7993C22.8703 16.8403 22.7875 16.8994 22.7189 16.9731L19.2489 20.4431L17.7789 18.9731C17.6367 18.8406 17.4486 18.7685 17.2543 18.7719C17.06 18.7753 16.8747 18.854 16.7372 18.9915C16.5998 19.1289 16.5211 19.3143 16.5177 19.5086C16.5143 19.7029 16.5864 19.8909 16.7189 20.0331L19.2489 22.5631L23.7789 18.0331Z" fill="#4126A8"/>
<path d="M21.0375 9.56186C20.3612 9.3332 19.6285 9.33355 18.9525 9.56286L12.1765 11.8579C11.6783 12.0238 11.2396 12.3318 10.9144 12.7441C10.5892 13.1563 10.3918 13.6548 10.3465 14.1779C9.99346 18.5879 10.5865 22.0539 12.1845 24.7709C13.7875 27.4959 16.3435 29.3689 19.7195 30.6999C19.8962 30.7695 20.0927 30.7695 20.2695 30.6999C23.6485 29.3689 26.2055 27.4959 27.8095 24.7709C29.4095 22.0539 30.0015 18.5869 29.6495 14.1789C29.6041 13.6556 29.4065 13.1571 29.0811 12.7449C28.7557 12.3326 28.3168 12.0246 27.8185 11.8589L21.0375 9.56186ZM19.4335 10.9839C19.7973 10.8607 20.1916 10.8607 20.5555 10.9839L27.3375 13.2789C27.7995 13.4349 28.1175 13.8399 28.1545 14.2979C28.4915 18.5239 27.9065 21.6489 26.5165 24.0099C25.1725 26.2949 23.0205 27.9559 19.9945 29.1939C16.9715 27.9559 14.8215 26.2949 13.4775 24.0099C12.0875 21.6499 11.5035 18.5239 11.8405 14.2979C11.8623 14.0667 11.9512 13.8469 12.0964 13.6657C12.2416 13.4844 12.4366 13.3496 12.6575 13.2779L19.4335 10.9839Z" fill="#4126A8"/>
</g>
<defs>
<clipPath id="clip0_2917_26">
<rect width="40" height="40" fill="white"/>
</clipPath>
</defs>
</svg>
