<svg width="40" height="40" viewBox="0 0 40 40" fill="none" xmlns="http://www.w3.org/2000/svg">
<g clip-path="url(#clip0_2917_55)">
<path d="M24 0H16C7.16344 0 0 7.16344 0 16V24C0 32.8366 7.16344 40 16 40H24C32.8366 40 40 32.8366 40 24V16C40 7.16344 32.8366 0 24 0Z" fill="#E8E2FF"/>
<path d="M19.998 30.5C14.208 30.5 9.49805 25.79 9.49805 20C9.49805 14.21 14.208 9.5 19.998 9.5C25.788 9.5 30.498 14.21 30.498 20C30.498 25.79 25.788 30.5 19.998 30.5ZM19.998 11C15.033 11 10.998 15.035 10.998 20C10.998 24.965 15.033 29 19.998 29C24.963 29 28.998 24.965 28.998 20C28.998 15.035 24.963 11 19.998 11Z" fill="#4126A8"/>
<path d="M22.9981 23.75C22.8631 23.75 22.7281 23.72 22.6081 23.645L18.8581 21.395C18.7475 21.3277 18.6562 21.2329 18.5931 21.1199C18.5301 21.0069 18.4973 20.8794 18.4981 20.75V14.75C18.4981 14.33 18.8281 14 19.2481 14C19.6681 14 19.9981 14.33 19.9981 14.75V20.33L23.3881 22.355C23.5277 22.4406 23.6356 22.5694 23.6955 22.7218C23.7553 22.8742 23.7639 23.042 23.7198 23.1997C23.6757 23.3575 23.5814 23.4965 23.4511 23.5958C23.3209 23.6951 23.1618 23.7492 22.9981 23.75Z" fill="#4126A8"/>
</g>
<defs>
<clipPath id="clip0_2917_55">
<rect width="40" height="40" fill="white"/>
</clipPath>
</defs>
</svg>
