<svg width="40" height="40" viewBox="0 0 40 40" fill="none" xmlns="http://www.w3.org/2000/svg">
<g clip-path="url(#clip0_2917_67)">
<path d="M24 0H16C7.16344 0 0 7.16344 0 16V24C0 32.8366 7.16344 40 16 40H24C32.8366 40 40 32.8366 40 24V16C40 7.16344 32.8366 0 24 0Z" fill="#E8E2FF"/>
<path d="M22.998 14V15.5H27.9375L21.498 21.9395L18.2783 18.7198C18.1377 18.5791 17.9469 18.5002 17.748 18.5002C17.5492 18.5002 17.3584 18.5791 17.2178 18.7198L9.49805 26.4395L10.5585 27.5L17.748 20.3105L20.9678 23.5303C21.1084 23.6709 21.2992 23.7498 21.498 23.7498C21.6969 23.7498 21.8877 23.6709 22.0283 23.5303L28.998 16.5605V21.5H30.498V14H22.998Z" fill="#4126A8"/>
</g>
<defs>
<clipPath id="clip0_2917_67">
<rect width="40" height="40" fill="white"/>
</clipPath>
</defs>
</svg>
