<svg width="24" height="24" viewBox="0 0 24 24" fill="none" xmlns="http://www.w3.org/2000/svg">
<rect width="24" height="24" rx="12" fill="#4126A8"/>
<path d="M12.0004 8.86354C11.3227 8.00094 10.2779 7.13835 7.68865 7.07504C7.51858 7.07089 7.37988 7.20903 7.37988 7.37916C7.37988 8.64117 7.37988 13.419 7.37988 14.832C7.37988 15.0021 7.51859 15.1357 7.68862 15.1413C10.2779 15.2259 11.3227 16.3739 12.0004 17.2365M12.0004 8.86354C12.6782 8.00094 13.7229 7.13835 16.3122 7.07504C16.4823 7.07089 16.621 7.20593 16.621 7.37605C16.621 8.78677 16.621 13.4208 16.621 14.8316C16.621 15.0017 16.4823 15.1357 16.3122 15.1413C13.723 15.2259 12.6782 16.3739 12.0004 17.2365M12.0004 8.86354V17.2365" stroke="white" stroke-width="0.821429" stroke-linejoin="round"/>
<path d="M16.457 8.30347H17.8523C18.0224 8.30347 18.1603 8.44138 18.1603 8.6115V16.6445C18.1603 16.8937 17.8666 17.0593 17.6388 16.9581C17.149 16.7404 16.3315 16.4745 15.2611 16.4745C13.4491 16.4745 11.9996 17.5445 11.9996 17.5445C11.9996 17.5445 10.55 16.4745 8.73803 16.4745C7.66764 16.4745 6.85019 16.7404 6.36035 16.9581C6.13254 17.0593 5.83887 16.8937 5.83887 16.6445V8.6115C5.83887 8.44138 5.97678 8.30347 6.1469 8.30347H7.54213" stroke="white" stroke-width="0.821429" stroke-linejoin="round"/>
</svg>
