<svg width="16" height="16" viewBox="0 0 16 16" fill="none" xmlns="http://www.w3.org/2000/svg">
<path fill-rule="evenodd" clip-rule="evenodd" d="M2.66699 2.66659C2.66699 2.31296 2.80747 1.97382 3.05752 1.72378C3.30756 1.47373 3.6467 1.33325 4.00033 1.33325H12.0003C12.3539 1.33325 12.6931 1.47373 12.9431 1.72378C13.1932 1.97382 13.3337 2.31296 13.3337 2.66659V13.3333C13.3337 13.6869 13.1932 14.026 12.9431 14.2761C12.6931 14.5261 12.3539 14.6666 12.0003 14.6666H4.00033C3.6467 14.6666 3.30756 14.5261 3.05752 14.2761C2.80747 14.026 2.66699 13.6869 2.66699 13.3333V2.66659ZM12.0003 2.66659H4.00033V13.3333H12.0003V2.66659ZM5.33366 5.99992C5.33366 5.82311 5.4039 5.65354 5.52892 5.52851C5.65395 5.40349 5.82351 5.33325 6.00033 5.33325H10.0003C10.1771 5.33325 10.3467 5.40349 10.4717 5.52851C10.5968 5.65354 10.667 5.82311 10.667 5.99992C10.667 6.17673 10.5968 6.3463 10.4717 6.47132C10.3467 6.59635 10.1771 6.66659 10.0003 6.66659H6.00033C5.82351 6.66659 5.65395 6.59635 5.52892 6.47132C5.4039 6.3463 5.33366 6.17673 5.33366 5.99992ZM6.00033 8.66659C5.82351 8.66659 5.65395 8.73682 5.52892 8.86185C5.4039 8.98687 5.33366 9.15644 5.33366 9.33325C5.33366 9.51006 5.4039 9.67963 5.52892 9.80466C5.65395 9.92968 5.82351 9.99992 6.00033 9.99992H8.00033C8.17714 9.99992 8.34671 9.92968 8.47173 9.80466C8.59675 9.67963 8.66699 9.51006 8.66699 9.33325C8.66699 9.15644 8.59675 8.98687 8.47173 8.86185C8.34671 8.73682 8.17714 8.66659 8.00033 8.66659H6.00033Z" fill="black"/>
</svg>
