<svg width="381" height="171" viewBox="0 0 381 171" fill="none" xmlns="http://www.w3.org/2000/svg">
<path d="M44.2001 59.0676L11.6831 131.091C10.5737 133.548 10 136.213 10 138.909V171H371V28.382C371 23.9675 369.463 19.6908 366.653 16.2864L359.018 7.03829C354.134 1.1216 347.946 4.08013 344.708 13.8799L322.115 82.2603C318.672 92.6799 311.951 95.2636 307.024 88.0615L302.853 81.964C297.887 74.7049 291.108 77.3937 287.693 87.9771L277.934 118.221C273.671 131.429 264.585 131.72 260.139 118.791L242.108 66.3528C237.908 54.1402 229.459 53.5862 224.917 65.2258L212.11 98.043C209.01 105.987 203.833 108.623 199.389 104.521L184.296 90.5886C180.625 87.2008 176.355 89.1029 173.624 95.3416C169.834 104 163.388 103.872 159.673 95.0652L126.921 17.4007C122.358 6.57981 114.321 7.23651 110.158 18.7704L87.8825 80.4837C83.9179 91.4678 76.3702 92.6818 71.6804 83.09L59.6143 58.4115C55.2685 49.5234 48.3767 49.8168 44.2001 59.0676Z" fill="url(#paint0_linear_67_3446)"/>
<g filter="url(#filter0_d_67_3446)">
<path d="M10 137.846L44.2001 61.7636C48.3767 52.4724 55.2685 52.1778 59.6142 61.1047L71.6804 85.8908C76.3702 95.5245 83.9179 94.3051 87.8825 83.2732L110.158 21.2906C114.321 9.70644 122.358 9.04688 126.921 19.9149L159.673 97.9183C163.388 106.764 169.834 106.892 173.624 98.1958C176.355 91.9299 180.625 90.0195 184.296 93.4221L199.389 107.415C203.833 111.535 209.01 108.887 212.11 100.909L224.917 67.9486C229.459 56.2583 237.908 56.8147 242.108 69.0806L260.139 121.748C264.585 134.733 273.671 134.441 277.934 121.175L287.693 90.7992C291.108 80.1696 297.887 77.4691 302.853 84.7598L307.024 90.8839C311.951 98.1175 318.672 95.5226 322.115 85.0574L344.708 16.3788C347.946 6.53629 354.134 3.56486 359.018 9.50735L371 24.0853" stroke="#4126A8" stroke-width="3"/>
</g>
<defs>
<filter id="filter0_d_67_3446" x="0.631836" y="0.955811" width="379.527" height="149.505" filterUnits="userSpaceOnUse" color-interpolation-filters="sRGB">
<feFlood flood-opacity="0" result="BackgroundImageFix"/>
<feColorMatrix in="SourceAlpha" type="matrix" values="0 0 0 0 0 0 0 0 0 0 0 0 0 0 0 0 0 0 127 0" result="hardAlpha"/>
<feOffset dy="4"/>
<feGaussianBlur stdDeviation="4"/>
<feColorMatrix type="matrix" values="0 0 0 0 0 0 0 0 0 0 0 0 0 0 0 0 0 0 0.12 0"/>
<feBlend mode="normal" in2="BackgroundImageFix" result="effect1_dropShadow_67_3446"/>
<feBlend mode="normal" in="SourceGraphic" in2="effect1_dropShadow_67_3446" result="shape"/>
</filter>
<linearGradient id="paint0_linear_67_3446" x1="190.487" y1="-117.597" x2="190.545" y2="171" gradientUnits="userSpaceOnUse">
<stop stop-color="#4126A8"/>
<stop offset="1" stop-color="white"/>
</linearGradient>
</defs>
</svg>
