<svg width="14" height="14" viewBox="0 0 14 14" fill="none" xmlns="http://www.w3.org/2000/svg">
<path d="M11.8125 5.24993C11.813 4.43891 11.6085 3.64093 11.218 2.9301C10.8276 2.21926 10.2638 1.61864 9.57908 1.184C8.89436 0.749372 8.11091 0.494831 7.30149 0.444024C6.49206 0.393217 5.68293 0.547792 4.94924 0.893392C4.21554 1.23899 3.58109 1.76441 3.10481 2.42083C2.62852 3.07726 2.32586 3.84341 2.22492 4.64812C2.12398 5.45283 2.22805 6.27 2.52746 7.02372C2.82686 7.77745 3.31189 8.44328 3.9375 8.95938V13.1249C3.93745 13.1995 3.95648 13.2729 3.99278 13.3381C4.02909 13.4033 4.08146 13.4581 4.14492 13.4974C4.20838 13.5366 4.28082 13.559 4.35536 13.5623C4.4299 13.5656 4.50406 13.5499 4.57078 13.5165L7 12.3046L9.42977 13.5192C9.4907 13.5483 9.55748 13.5631 9.625 13.5624C9.74103 13.5624 9.85231 13.5163 9.93436 13.4343C10.0164 13.3522 10.0625 13.241 10.0625 13.1249V8.95938C10.6099 8.50855 11.0507 7.94214 11.3532 7.30079C11.6558 6.65944 11.8126 5.95906 11.8125 5.24993ZM3.0625 5.24993C3.0625 4.47116 3.29343 3.70989 3.72609 3.06237C4.15875 2.41485 4.7737 1.91017 5.49318 1.61215C6.21267 1.31413 7.00437 1.23616 7.76817 1.38809C8.53197 1.54002 9.23356 1.91503 9.78423 2.4657C10.3349 3.01636 10.7099 3.71796 10.8618 4.48176C11.0138 5.24556 10.9358 6.03726 10.6378 6.75674C10.3398 7.47623 9.83508 8.09118 9.18756 8.52384C8.54004 8.9565 7.77876 9.18743 7 9.18743C5.95607 9.18627 4.95522 8.77106 4.21705 8.03288C3.47887 7.29471 3.06366 6.29386 3.0625 5.24993ZM9.1875 12.4173L7.19524 11.4214C7.13445 11.391 7.06742 11.3752 6.99945 11.3752C6.93149 11.3752 6.86445 11.391 6.80367 11.4214L4.8125 12.4173V9.53579C5.48973 9.88193 6.23944 10.0624 7 10.0624C7.76056 10.0624 8.51027 9.88193 9.1875 9.53579V12.4173ZM7 8.31243C7.60571 8.31243 8.19781 8.13282 8.70143 7.7963C9.20506 7.45979 9.59759 6.98149 9.82938 6.4219C10.0612 5.8623 10.1218 5.24653 10.0037 4.65246C9.88549 4.0584 9.59381 3.51271 9.16551 3.08441C8.73722 2.65612 8.19153 2.36444 7.59747 2.24627C7.0034 2.12811 6.38763 2.18875 5.82803 2.42055C5.26843 2.65234 4.79014 3.04487 4.45362 3.54849C4.11711 4.05212 3.9375 4.64422 3.9375 5.24993C3.93837 6.06189 4.2613 6.84034 4.83545 7.41448C5.40959 7.98863 6.18804 8.31156 7 8.31243ZM7 3.06243C7.43265 3.06243 7.85558 3.19072 8.21531 3.43109C8.57504 3.67145 8.85542 4.01309 9.02099 4.41281C9.18655 4.81252 9.22987 5.25235 9.14547 5.67669C9.06106 6.10102 8.85272 6.4908 8.5468 6.79672C8.24087 7.10265 7.85109 7.31099 7.42676 7.3954C7.00243 7.4798 6.56259 7.43648 6.16288 7.27091C5.76317 7.10535 5.42153 6.82497 5.18116 6.46524C4.9408 6.10551 4.8125 5.68257 4.8125 5.24993C4.8125 4.66977 5.04297 4.11337 5.4532 3.70313C5.86344 3.2929 6.41984 3.06243 7 3.06243Z" fill="#4126A8"/>
</svg>
