<svg width="82" height="83" viewBox="0 0 82 83" fill="none" xmlns="http://www.w3.org/2000/svg">
<rect x="0.759259" y="1.25926" width="80.4815" height="80.4815" rx="8.35185" fill="#F8ECCE"/>
<rect x="0.759259" y="1.25926" width="80.4815" height="80.4815" rx="8.35185" stroke="#F59F0A" stroke-width="1.51852"/>
<path d="M57.7422 35.8136C57.7438 32.9818 57.0482 30.1955 55.7199 27.7135C54.3917 25.2315 52.4738 23.1344 50.1446 21.6168C47.8153 20.0992 45.1502 19.2104 42.3967 19.033C39.6432 18.8556 36.8907 19.3953 34.3948 20.602C31.899 21.8088 29.7407 23.6433 28.1205 25.9354C26.5003 28.2274 25.4707 30.9025 25.1273 33.7123C24.7839 36.522 25.1379 39.3753 26.1565 42.0071C27.175 44.6388 28.8249 46.9637 30.9531 48.7657V63.3104C30.9529 63.5709 31.0177 63.8271 31.1412 64.0547C31.2647 64.2823 31.4428 64.4737 31.6587 64.6108C31.8746 64.7478 32.121 64.8258 32.3746 64.8375C32.6282 64.8492 32.8804 64.7942 33.1074 64.6776L41.3711 60.4461L49.6366 64.6871C49.8439 64.7887 50.0711 64.8403 50.3008 64.838C50.6955 64.838 51.074 64.677 51.3532 64.3905C51.6323 64.1041 51.7891 63.7155 51.7891 63.3104V48.7657C53.6511 47.1916 55.1506 45.2138 56.1799 42.9745C57.2092 40.7351 57.7427 38.2896 57.7422 35.8136ZM27.9766 35.8136C27.9766 33.0944 28.7621 30.4363 30.2339 28.1754C31.7058 25.9145 33.7977 24.1523 36.2452 23.1117C38.6928 22.0711 41.386 21.7989 43.9842 22.3293C46.5825 22.8598 48.9692 24.1692 50.8425 26.092C52.7157 28.0147 53.9914 30.4645 54.5083 33.1314C55.0251 35.7983 54.7598 38.5627 53.746 41.0749C52.7322 43.587 51.0154 45.7343 48.8127 47.2449C46.61 48.7556 44.0203 49.562 41.3711 49.562C37.8199 49.5579 34.4152 48.1081 31.9041 45.5307C29.393 42.9532 27.9805 39.4586 27.9766 35.8136ZM48.8125 60.8395L42.0352 57.3623C41.8285 57.2561 41.6004 57.2008 41.3692 57.2008C41.138 57.2008 40.91 57.2561 40.7032 57.3623L33.9297 60.8395V50.7783C36.2335 51.9869 38.7838 52.6171 41.3711 52.6171C43.9584 52.6171 46.5087 51.9869 48.8125 50.7783V60.8395ZM41.3711 46.5068C43.4316 46.5068 45.4458 45.8796 47.159 44.7046C48.8722 43.5297 50.2075 41.8596 50.996 39.9057C51.7846 37.9518 51.9909 35.8017 51.5889 33.7274C51.1869 31.6532 50.1947 29.7478 48.7377 28.2523C47.2807 26.7569 45.4244 25.7384 43.4035 25.3258C41.3827 24.9132 39.2879 25.125 37.3843 25.9343C35.4807 26.7437 33.8536 28.1143 32.7089 29.8728C31.5641 31.6312 30.9531 33.6987 30.9531 35.8136C30.9561 38.6487 32.0546 41.3668 34.0077 43.3715C35.9608 45.3762 38.609 46.5037 41.3711 46.5068ZM41.3711 28.1756C42.8429 28.1756 44.2816 28.6235 45.5053 29.4628C46.729 30.3021 47.6828 31.495 48.2461 32.8906C48.8093 34.2863 48.9566 35.822 48.6695 37.3037C48.3824 38.7853 47.6737 40.1463 46.633 41.2145C45.5923 42.2826 44.2663 43.0101 42.8228 43.3048C41.3793 43.5995 39.8831 43.4483 38.5234 42.8702C37.1637 42.2921 36.0015 41.3131 35.1838 40.057C34.3661 38.801 33.9297 37.3242 33.9297 35.8136C33.9297 33.7878 34.7137 31.8451 36.1092 30.4127C37.5048 28.9803 39.3975 28.1756 41.3711 28.1756Z" fill="#F59F0A"/>
</svg>
