<svg width="18" height="17" viewBox="0 0 18 17" fill="none" xmlns="http://www.w3.org/2000/svg">
<path d="M5.45898 12.0514L8.58486 12.0408L15.4075 5.28327C15.6753 5.01552 15.8226 4.65994 15.8226 4.28169C15.8226 3.90344 15.6753 3.54785 15.4075 3.2801L14.2841 2.15669C13.7486 1.62119 12.8143 1.62402 12.2831 2.15456L5.45898 8.91348V12.0514ZM13.2825 3.15827L14.4081 4.27956L13.2769 5.40015L12.1534 4.27744L13.2825 3.15827ZM6.87565 9.50423L11.1469 5.27335L12.2703 6.39677L7.99978 10.6262L6.87565 10.6298V9.50423Z" fill="#4126A8"/>
<path d="M4.04167 14.875H13.9583C14.7396 14.875 15.375 14.2396 15.375 13.4583V7.3185L13.9583 8.73517V13.4583H6.27858C6.26017 13.4583 6.24104 13.4654 6.22263 13.4654C6.19925 13.4654 6.17587 13.459 6.15179 13.4583H4.04167V3.54167H8.89162L10.3083 2.125H4.04167C3.26037 2.125 2.625 2.76037 2.625 3.54167V13.4583C2.625 14.2396 3.26037 14.875 4.04167 14.875Z" fill="#4126A8"/>
</svg>
