<svg width="1086" height="353" viewBox="0 0 1086 353" fill="none" xmlns="http://www.w3.org/2000/svg">
<path d="M18.8153 16V5.28L19.3273 5.824H16.1753V4.8H19.9673V16H18.8153ZM27.1085 16.096C26.2445 16.096 25.4765 15.872 24.8045 15.424C24.1325 14.9653 23.6045 14.3147 23.2205 13.472C22.8365 12.6187 22.6445 11.5947 22.6445 10.4C22.6445 9.20533 22.8365 8.18667 23.2205 7.344C23.6045 6.49067 24.1325 5.84 24.8045 5.392C25.4765 4.93333 26.2445 4.704 27.1085 4.704C27.9725 4.704 28.7405 4.93333 29.4125 5.392C30.0845 5.84 30.6125 6.49067 30.9965 7.344C31.3912 8.18667 31.5885 9.20533 31.5885 10.4C31.5885 11.5947 31.3912 12.6187 30.9965 13.472C30.6125 14.3147 30.0845 14.9653 29.4125 15.424C28.7405 15.872 27.9725 16.096 27.1085 16.096ZM27.1085 15.04C27.7698 15.04 28.3458 14.864 28.8365 14.512C29.3272 14.1493 29.7112 13.6267 29.9885 12.944C30.2658 12.2507 30.4045 11.4027 30.4045 10.4C30.4045 9.39733 30.2658 8.55467 29.9885 7.872C29.7112 7.17867 29.3272 6.656 28.8365 6.304C28.3458 5.94133 27.7698 5.76 27.1085 5.76C26.4685 5.76 25.8978 5.94133 25.3965 6.304C24.8952 6.656 24.5058 7.17867 24.2285 7.872C23.9512 8.55467 23.8125 9.39733 23.8125 10.4C23.8125 11.4027 23.9512 12.2507 24.2285 12.944C24.5058 13.6267 24.8952 14.1493 25.3965 14.512C25.8978 14.864 26.4685 15.04 27.1085 15.04ZM37.7023 16.096C36.8383 16.096 36.0703 15.872 35.3983 15.424C34.7263 14.9653 34.1983 14.3147 33.8143 13.472C33.4303 12.6187 33.2383 11.5947 33.2383 10.4C33.2383 9.20533 33.4303 8.18667 33.8143 7.344C34.1983 6.49067 34.7263 5.84 35.3983 5.392C36.0703 4.93333 36.8383 4.704 37.7023 4.704C38.5663 4.704 39.3343 4.93333 40.0063 5.392C40.6783 5.84 41.2063 6.49067 41.5903 7.344C41.9849 8.18667 42.1823 9.20533 42.1823 10.4C42.1823 11.5947 41.9849 12.6187 41.5903 13.472C41.2063 14.3147 40.6783 14.9653 40.0063 15.424C39.3343 15.872 38.5663 16.096 37.7023 16.096ZM37.7023 15.04C38.3636 15.04 38.9396 14.864 39.4303 14.512C39.9209 14.1493 40.3049 13.6267 40.5823 12.944C40.8596 12.2507 40.9983 11.4027 40.9983 10.4C40.9983 9.39733 40.8596 8.55467 40.5823 7.872C40.3049 7.17867 39.9209 6.656 39.4303 6.304C38.9396 5.94133 38.3636 5.76 37.7023 5.76C37.0623 5.76 36.4916 5.94133 35.9903 6.304C35.4889 6.656 35.0996 7.17867 34.8223 7.872C34.5449 8.55467 34.4062 9.39733 34.4062 10.4C34.4062 11.4027 34.5449 12.2507 34.8223 12.944C35.0996 13.6267 35.4889 14.1493 35.9903 14.512C36.4916 14.864 37.0623 15.04 37.7023 15.04Z" fill="black"/>
<path d="M27.2911 69.096C26.3951 69.096 25.6218 68.968 24.9711 68.712C24.3311 68.456 23.8351 68.088 23.4831 67.608C23.1418 67.1173 22.9711 66.5413 22.9711 65.88C22.9711 65.24 23.1365 64.696 23.4671 64.248C23.8085 63.7893 24.2991 63.4373 24.9391 63.192C25.5898 62.9467 26.3738 62.824 27.2911 62.824C28.1978 62.824 28.9765 62.9467 29.6271 63.192C30.2778 63.4373 30.7738 63.7893 31.1151 64.248C31.4671 64.696 31.6431 65.24 31.6431 65.88C31.6431 66.5413 31.4671 67.1173 31.1151 67.608C30.7631 68.088 30.2618 68.456 29.6111 68.712C28.9605 68.968 28.1871 69.096 27.2911 69.096ZM27.2911 68.12C28.2831 68.12 29.0565 67.9173 29.6111 67.512C30.1765 67.1067 30.4591 66.5573 30.4591 65.864C30.4591 65.1707 30.1765 64.6267 29.6111 64.232C29.0565 63.8267 28.2831 63.624 27.2911 63.624C26.2991 63.624 25.5258 63.8267 24.9711 64.232C24.4165 64.6267 24.1391 65.1707 24.1391 65.864C24.1391 66.5573 24.4165 67.1067 24.9711 67.512C25.5258 67.9173 26.2991 68.12 27.2911 68.12ZM27.2911 63.48C26.4591 63.48 25.7498 63.368 25.1631 63.144C24.5871 62.92 24.1445 62.6 23.8351 62.184C23.5258 61.7573 23.3711 61.2507 23.3711 60.664C23.3711 60.0453 23.5311 59.5173 23.8511 59.08C24.1818 58.632 24.6405 58.2907 25.2271 58.056C25.8138 57.8213 26.5018 57.704 27.2911 57.704C28.0805 57.704 28.7685 57.8213 29.3551 58.056C29.9525 58.2907 30.4165 58.632 30.7471 59.08C31.0778 59.5173 31.2431 60.0453 31.2431 60.664C31.2431 61.2507 31.0885 61.7573 30.7791 62.184C30.4698 62.6 30.0165 62.92 29.4191 63.144C28.8325 63.368 28.1231 63.48 27.2911 63.48ZM27.2911 62.712C28.1658 62.712 28.8485 62.5307 29.3391 62.168C29.8298 61.8053 30.0751 61.32 30.0751 60.712C30.0751 60.072 29.8191 59.576 29.3071 59.224C28.8058 58.8613 28.1338 58.68 27.2911 58.68C26.4485 58.68 25.7765 58.8613 25.2751 59.224C24.7738 59.576 24.5231 60.0667 24.5231 60.696C24.5231 61.3147 24.7631 61.8053 25.2431 62.168C25.7338 62.5307 26.4165 62.712 27.2911 62.712ZM37.7023 69.096C36.8383 69.096 36.0703 68.872 35.3983 68.424C34.7263 67.9653 34.1983 67.3147 33.8143 66.472C33.4303 65.6187 33.2383 64.5947 33.2383 63.4C33.2383 62.2053 33.4303 61.1867 33.8143 60.344C34.1983 59.4907 34.7263 58.84 35.3983 58.392C36.0703 57.9333 36.8383 57.704 37.7023 57.704C38.5663 57.704 39.3343 57.9333 40.0063 58.392C40.6783 58.84 41.2063 59.4907 41.5903 60.344C41.9849 61.1867 42.1823 62.2053 42.1823 63.4C42.1823 64.5947 41.9849 65.6187 41.5903 66.472C41.2063 67.3147 40.6783 67.9653 40.0063 68.424C39.3343 68.872 38.5663 69.096 37.7023 69.096ZM37.7023 68.04C38.3636 68.04 38.9396 67.864 39.4303 67.512C39.9209 67.1493 40.3049 66.6267 40.5823 65.944C40.8596 65.2507 40.9983 64.4027 40.9983 63.4C40.9983 62.3973 40.8596 61.5547 40.5823 60.872C40.3049 60.1787 39.9209 59.656 39.4303 59.304C38.9396 58.9413 38.3636 58.76 37.7023 58.76C37.0623 58.76 36.4916 58.9413 35.9903 59.304C35.4889 59.656 35.0996 60.1787 34.8223 60.872C34.5449 61.5547 34.4062 62.3973 34.4062 63.4C34.4062 64.4027 34.5449 65.2507 34.8223 65.944C35.0996 66.6267 35.4889 67.1493 35.9903 67.512C36.4916 67.864 37.0623 68.04 37.7023 68.04Z" fill="black"/>
<path d="M28.0803 122.096C27.0883 122.096 26.2509 121.877 25.5683 121.44C24.8856 120.992 24.3683 120.352 24.0163 119.52C23.6643 118.677 23.4883 117.669 23.4883 116.496C23.4883 115.227 23.7016 114.165 24.1283 113.312C24.5656 112.448 25.1683 111.797 25.9363 111.36C26.7043 110.923 27.5949 110.704 28.6083 110.704C29.1096 110.704 29.5896 110.752 30.0483 110.848C30.5069 110.944 30.9123 111.099 31.2643 111.312L30.8003 112.24C30.5123 112.048 30.1816 111.915 29.8083 111.84C29.4349 111.755 29.0403 111.712 28.6243 111.712C27.4189 111.712 26.4536 112.096 25.7283 112.864C25.0136 113.632 24.6562 114.779 24.6562 116.304C24.6562 116.539 24.6669 116.832 24.6883 117.184C24.7203 117.525 24.7843 117.867 24.8803 118.208L24.4803 117.904C24.5976 117.349 24.8269 116.88 25.1683 116.496C25.5096 116.101 25.9363 115.803 26.4483 115.6C26.9603 115.397 27.5203 115.296 28.1283 115.296C28.8749 115.296 29.5309 115.435 30.0963 115.712C30.6616 115.989 31.1043 116.379 31.4243 116.88C31.7443 117.381 31.9043 117.973 31.9043 118.656C31.9043 119.349 31.7389 119.957 31.4083 120.48C31.0776 120.992 30.6189 121.392 30.0323 121.68C29.4563 121.957 28.8056 122.096 28.0803 122.096ZM28.0323 121.12C28.5656 121.12 29.0349 121.024 29.4403 120.832C29.8563 120.629 30.1816 120.347 30.4163 119.984C30.6509 119.611 30.7683 119.179 30.7683 118.688C30.7683 117.952 30.5123 117.365 30.0003 116.928C29.4989 116.491 28.8163 116.272 27.9523 116.272C27.3763 116.272 26.8749 116.379 26.4483 116.592C26.0216 116.805 25.6856 117.099 25.4403 117.472C25.1949 117.835 25.0723 118.251 25.0723 118.72C25.0723 119.125 25.1843 119.515 25.4083 119.888C25.6323 120.251 25.9629 120.549 26.4003 120.784C26.8483 121.008 27.3923 121.12 28.0323 121.12ZM37.7023 122.096C36.8383 122.096 36.0703 121.872 35.3983 121.424C34.7263 120.965 34.1983 120.315 33.8143 119.472C33.4303 118.619 33.2383 117.595 33.2383 116.4C33.2383 115.205 33.4303 114.187 33.8143 113.344C34.1983 112.491 34.7263 111.84 35.3983 111.392C36.0703 110.933 36.8383 110.704 37.7023 110.704C38.5663 110.704 39.3343 110.933 40.0063 111.392C40.6783 111.84 41.2063 112.491 41.5903 113.344C41.9849 114.187 42.1823 115.205 42.1823 116.4C42.1823 117.595 41.9849 118.619 41.5903 119.472C41.2063 120.315 40.6783 120.965 40.0063 121.424C39.3343 121.872 38.5663 122.096 37.7023 122.096ZM37.7023 121.04C38.3636 121.04 38.9396 120.864 39.4303 120.512C39.9209 120.149 40.3049 119.627 40.5823 118.944C40.8596 118.251 40.9983 117.403 40.9983 116.4C40.9983 115.397 40.8596 114.555 40.5823 113.872C40.3049 113.179 39.9209 112.656 39.4303 112.304C38.9396 111.941 38.3636 111.76 37.7023 111.76C37.0623 111.76 36.4916 111.941 35.9903 112.304C35.4889 112.656 35.0996 113.179 34.8223 113.872C34.5449 114.555 34.4062 115.397 34.4062 116.4C34.4062 117.403 34.5449 118.251 34.8223 118.944C35.0996 119.627 35.4889 120.149 35.9903 120.512C36.4916 120.864 37.0623 121.04 37.7023 121.04Z" fill="black"/>
<path d="M22.4681 172.056V171.224L28.4041 163.8H29.6841L23.7961 171.224L23.1721 171.032H32.1801V172.056H22.4681ZM28.7881 175V172.056L28.8201 171.032V168.44H29.9401V175H28.7881ZM37.7023 175.096C36.8383 175.096 36.0703 174.872 35.3983 174.424C34.7263 173.965 34.1983 173.315 33.8143 172.472C33.4303 171.619 33.2383 170.595 33.2383 169.4C33.2383 168.205 33.4303 167.187 33.8143 166.344C34.1983 165.491 34.7263 164.84 35.3983 164.392C36.0703 163.933 36.8383 163.704 37.7023 163.704C38.5663 163.704 39.3343 163.933 40.0063 164.392C40.6783 164.84 41.2063 165.491 41.5903 166.344C41.9849 167.187 42.1823 168.205 42.1823 169.4C42.1823 170.595 41.9849 171.619 41.5903 172.472C41.2063 173.315 40.6783 173.965 40.0063 174.424C39.3343 174.872 38.5663 175.096 37.7023 175.096ZM37.7023 174.04C38.3636 174.04 38.9396 173.864 39.4303 173.512C39.9209 173.149 40.3049 172.627 40.5823 171.944C40.8596 171.251 40.9983 170.403 40.9983 169.4C40.9983 168.397 40.8596 167.555 40.5823 166.872C40.3049 166.179 39.9209 165.656 39.4303 165.304C38.9396 164.941 38.3636 164.76 37.7023 164.76C37.0623 164.76 36.4916 164.941 35.9903 165.304C35.4889 165.656 35.0996 166.179 34.8223 166.872C34.5449 167.555 34.4062 168.397 34.4062 169.4C34.4062 170.403 34.5449 171.251 34.8223 171.944C35.0996 172.627 35.4889 173.149 35.9903 173.512C36.4916 173.864 37.0623 174.04 37.7023 174.04Z" fill="black"/>
<path d="M23.9678 228V227.184L28.6238 222.624C29.0504 222.208 29.3704 221.845 29.5838 221.536C29.7971 221.216 29.9411 220.917 30.0158 220.64C30.0904 220.363 30.1278 220.101 30.1278 219.856C30.1278 219.205 29.9038 218.693 29.4558 218.32C29.0184 217.947 28.3678 217.76 27.5038 217.76C26.8424 217.76 26.2558 217.861 25.7438 218.064C25.2424 218.267 24.8104 218.581 24.4478 219.008L23.6318 218.304C24.0691 217.792 24.6291 217.397 25.3118 217.12C25.9944 216.843 26.7571 216.704 27.5998 216.704C28.3571 216.704 29.0131 216.827 29.5678 217.072C30.1224 217.307 30.5491 217.653 30.8478 218.112C31.1571 218.571 31.3118 219.109 31.3118 219.728C31.3118 220.091 31.2584 220.448 31.1518 220.8C31.0558 221.152 30.8744 221.525 30.6078 221.92C30.3518 222.304 29.9731 222.741 29.4718 223.232L25.1998 227.424L24.8798 226.976H31.8238V228H23.9678ZM37.7023 228.096C36.8383 228.096 36.0703 227.872 35.3983 227.424C34.7263 226.965 34.1983 226.315 33.8143 225.472C33.4303 224.619 33.2383 223.595 33.2383 222.4C33.2383 221.205 33.4303 220.187 33.8143 219.344C34.1983 218.491 34.7263 217.84 35.3983 217.392C36.0703 216.933 36.8383 216.704 37.7023 216.704C38.5663 216.704 39.3343 216.933 40.0063 217.392C40.6783 217.84 41.2063 218.491 41.5903 219.344C41.9849 220.187 42.1823 221.205 42.1823 222.4C42.1823 223.595 41.9849 224.619 41.5903 225.472C41.2063 226.315 40.6783 226.965 40.0063 227.424C39.3343 227.872 38.5663 228.096 37.7023 228.096ZM37.7023 227.04C38.3636 227.04 38.9396 226.864 39.4303 226.512C39.9209 226.149 40.3049 225.627 40.5823 224.944C40.8596 224.251 40.9983 223.403 40.9983 222.4C40.9983 221.397 40.8596 220.555 40.5823 219.872C40.3049 219.179 39.9209 218.656 39.4303 218.304C38.9396 217.941 38.3636 217.76 37.7023 217.76C37.0623 217.76 36.4916 217.941 35.9903 218.304C35.4889 218.656 35.0996 219.179 34.8223 219.872C34.5449 220.555 34.4062 221.397 34.4062 222.4C34.4062 223.403 34.5449 224.251 34.8223 224.944C35.0996 225.627 35.4889 226.149 35.9903 226.512C36.4916 226.864 37.0623 227.04 37.7023 227.04Z" fill="black"/>
<path d="M37.7023 281.096C36.8383 281.096 36.0703 280.872 35.3983 280.424C34.7263 279.965 34.1983 279.315 33.8143 278.472C33.4303 277.619 33.2383 276.595 33.2383 275.4C33.2383 274.205 33.4303 273.187 33.8143 272.344C34.1983 271.491 34.7263 270.84 35.3983 270.392C36.0703 269.933 36.8383 269.704 37.7023 269.704C38.5663 269.704 39.3343 269.933 40.0063 270.392C40.6783 270.84 41.2063 271.491 41.5903 272.344C41.9849 273.187 42.1823 274.205 42.1823 275.4C42.1823 276.595 41.9849 277.619 41.5903 278.472C41.2063 279.315 40.6783 279.965 40.0063 280.424C39.3343 280.872 38.5663 281.096 37.7023 281.096ZM37.7023 280.04C38.3636 280.04 38.9396 279.864 39.4303 279.512C39.9209 279.149 40.3049 278.627 40.5823 277.944C40.8596 277.251 40.9983 276.403 40.9983 275.4C40.9983 274.397 40.8596 273.555 40.5823 272.872C40.3049 272.179 39.9209 271.656 39.4303 271.304C38.9396 270.941 38.3636 270.76 37.7023 270.76C37.0623 270.76 36.4916 270.941 35.9903 271.304C35.4889 271.656 35.0996 272.179 34.8223 272.872C34.5449 273.555 34.4062 274.397 34.4062 275.4C34.4062 276.403 34.5449 277.251 34.8223 277.944C35.0996 278.627 35.4889 279.149 35.9903 279.512C36.4916 279.864 37.0623 280.04 37.7023 280.04Z" fill="black"/>
<rect x="80.416" y="289.813" width="1005.58" height="2.83716" fill="#D9D9D9"/>
<rect x="80.416" y="6.09717" width="4.67714" height="283.716" fill="#D9D9D9"/>
<line x1="43" y1="234.504" x2="1086" y2="234.504" stroke="#EEE9E9" stroke-width="2.70124"/>
<line x1="43" y1="177.787" x2="1086" y2="177.787" stroke="#EEE9E9" stroke-width="2.70124"/>
<line x1="43" y1="121.07" x2="1086" y2="121.07" stroke="#EEE9E9" stroke-width="2.70124"/>
<line x1="43" y1="64.353" x2="1086" y2="64.353" stroke="#EEE9E9" stroke-width="2.70124"/>
<line x1="43" y1="7.63595" x2="1086" y2="7.63595" stroke="#EEE9E9" stroke-width="2.70124"/>
<path d="M255 290H143L143 71.1037C143 66.6282 146.628 63 151.104 63H246.896C251.372 63 255 66.6282 255 71.1037L255 290Z" fill="#C951E7"/>
<path d="M155.769 327V315.8H156.953V325.976H163.225V327H155.769ZM164.951 327V318.6H166.087V327H164.951ZM165.527 316.744C165.293 316.744 165.095 316.664 164.935 316.504C164.775 316.344 164.695 316.152 164.695 315.928C164.695 315.704 164.775 315.517 164.935 315.368C165.095 315.208 165.293 315.128 165.527 315.128C165.762 315.128 165.959 315.203 166.119 315.352C166.279 315.501 166.359 315.688 166.359 315.912C166.359 316.147 166.279 316.344 166.119 316.504C165.97 316.664 165.773 316.744 165.527 316.744ZM169.44 327V317.544C169.44 316.797 169.659 316.195 170.096 315.736C170.533 315.277 171.163 315.048 171.984 315.048C172.304 315.048 172.613 315.091 172.912 315.176C173.211 315.261 173.461 315.395 173.664 315.576L173.28 316.424C173.12 316.285 172.933 316.184 172.72 316.12C172.507 316.045 172.277 316.008 172.032 316.008C171.552 316.008 171.184 316.141 170.928 316.408C170.672 316.675 170.544 317.069 170.544 317.592V318.872L170.576 319.4V327H169.44ZM167.936 319.544V318.6H173.136V319.544H167.936ZM178.097 327.08C177.223 327.08 176.455 326.899 175.793 326.536C175.132 326.163 174.615 325.656 174.241 325.016C173.868 324.365 173.681 323.624 173.681 322.792C173.681 321.96 173.857 321.224 174.209 320.584C174.572 319.944 175.063 319.443 175.681 319.08C176.311 318.707 177.015 318.52 177.793 318.52C178.583 318.52 179.281 318.701 179.889 319.064C180.508 319.416 180.993 319.917 181.345 320.568C181.697 321.208 181.873 321.949 181.873 322.792C181.873 322.845 181.868 322.904 181.857 322.968C181.857 323.021 181.857 323.08 181.857 323.144H174.545V322.296H181.249L180.801 322.632C180.801 322.024 180.668 321.485 180.401 321.016C180.145 320.536 179.793 320.163 179.345 319.896C178.897 319.629 178.38 319.496 177.793 319.496C177.217 319.496 176.7 319.629 176.241 319.896C175.783 320.163 175.425 320.536 175.169 321.016C174.913 321.496 174.785 322.045 174.785 322.664V322.84C174.785 323.48 174.924 324.045 175.201 324.536C175.489 325.016 175.884 325.395 176.385 325.672C176.897 325.939 177.479 326.072 178.129 326.072C178.641 326.072 179.116 325.981 179.553 325.8C180.001 325.619 180.385 325.341 180.705 324.968L181.345 325.704C180.972 326.152 180.503 326.493 179.937 326.728C179.383 326.963 178.769 327.08 178.097 327.08ZM188.613 327V315.8H193.173C194.368 315.8 195.413 316.04 196.309 316.52C197.216 316.989 197.92 317.645 198.421 318.488C198.922 319.331 199.173 320.301 199.173 321.4C199.173 322.499 198.922 323.469 198.421 324.312C197.92 325.155 197.216 325.816 196.309 326.296C195.413 326.765 194.368 327 193.173 327H188.613ZM189.797 325.976H193.109C194.101 325.976 194.96 325.784 195.685 325.4C196.421 325.005 196.992 324.467 197.397 323.784C197.802 323.091 198.005 322.296 198.005 321.4C198.005 320.493 197.802 319.699 197.397 319.016C196.992 318.333 196.421 317.8 195.685 317.416C194.96 317.021 194.101 316.824 193.109 316.824H189.797V325.976ZM201.592 327V318.6H202.68V320.888L202.568 320.488C202.802 319.848 203.197 319.363 203.752 319.032C204.306 318.691 204.994 318.52 205.816 318.52V319.624C205.773 319.624 205.73 319.624 205.688 319.624C205.645 319.613 205.602 319.608 205.56 319.608C204.674 319.608 203.981 319.88 203.48 320.424C202.978 320.957 202.728 321.72 202.728 322.712V327H201.592ZM211.379 327.08C210.504 327.08 209.736 326.899 209.075 326.536C208.413 326.163 207.896 325.656 207.523 325.016C207.149 324.365 206.963 323.624 206.963 322.792C206.963 321.96 207.139 321.224 207.491 320.584C207.853 319.944 208.344 319.443 208.963 319.08C209.592 318.707 210.296 318.52 211.075 318.52C211.864 318.52 212.563 318.701 213.171 319.064C213.789 319.416 214.275 319.917 214.627 320.568C214.979 321.208 215.155 321.949 215.155 322.792C215.155 322.845 215.149 322.904 215.139 322.968C215.139 323.021 215.139 323.08 215.139 323.144H207.827V322.296H214.531L214.083 322.632C214.083 322.024 213.949 321.485 213.683 321.016C213.427 320.536 213.075 320.163 212.627 319.896C212.179 319.629 211.661 319.496 211.075 319.496C210.499 319.496 209.981 319.629 209.523 319.896C209.064 320.163 208.707 320.536 208.451 321.016C208.195 321.496 208.067 322.045 208.067 322.664V322.84C208.067 323.48 208.205 324.045 208.483 324.536C208.771 325.016 209.165 325.395 209.667 325.672C210.179 325.939 210.76 326.072 211.411 326.072C211.923 326.072 212.397 325.981 212.835 325.8C213.283 325.619 213.667 325.341 213.987 324.968L214.627 325.704C214.253 326.152 213.784 326.493 213.219 326.728C212.664 326.963 212.051 327.08 211.379 327.08ZM222.496 327V325.144L222.448 324.84V321.736C222.448 321.021 222.246 320.472 221.84 320.088C221.446 319.704 220.854 319.512 220.064 319.512C219.52 319.512 219.003 319.603 218.512 319.784C218.022 319.965 217.606 320.205 217.264 320.504L216.752 319.656C217.179 319.293 217.691 319.016 218.288 318.824C218.886 318.621 219.515 318.52 220.176 318.52C221.264 318.52 222.102 318.792 222.688 319.336C223.286 319.869 223.584 320.685 223.584 321.784V327H222.496ZM219.6 327.08C218.971 327.08 218.422 326.979 217.952 326.776C217.494 326.563 217.142 326.275 216.896 325.912C216.651 325.539 216.528 325.112 216.528 324.632C216.528 324.195 216.63 323.8 216.832 323.448C217.046 323.085 217.387 322.797 217.856 322.584C218.336 322.36 218.976 322.248 219.776 322.248H222.672V323.096H219.808C218.998 323.096 218.432 323.24 218.112 323.528C217.803 323.816 217.648 324.173 217.648 324.6C217.648 325.08 217.835 325.464 218.208 325.752C218.582 326.04 219.104 326.184 219.776 326.184C220.416 326.184 220.966 326.04 221.424 325.752C221.894 325.453 222.235 325.027 222.448 324.472L222.704 325.256C222.491 325.811 222.118 326.253 221.584 326.584C221.062 326.915 220.4 327.08 219.6 327.08ZM237.166 318.52C237.849 318.52 238.441 318.653 238.942 318.92C239.454 319.176 239.849 319.571 240.126 320.104C240.414 320.637 240.558 321.309 240.558 322.12V327H239.422V322.232C239.422 321.347 239.209 320.68 238.782 320.232C238.366 319.773 237.774 319.544 237.006 319.544C236.43 319.544 235.929 319.667 235.502 319.912C235.086 320.147 234.761 320.493 234.526 320.952C234.302 321.4 234.19 321.944 234.19 322.584V327H233.054V322.232C233.054 321.347 232.841 320.68 232.414 320.232C231.987 319.773 231.39 319.544 230.622 319.544C230.057 319.544 229.561 319.667 229.134 319.912C228.707 320.147 228.377 320.493 228.142 320.952C227.918 321.4 227.806 321.944 227.806 322.584V327H226.67V318.6H227.758V320.872L227.582 320.472C227.838 319.864 228.249 319.389 228.814 319.048C229.39 318.696 230.067 318.52 230.846 318.52C231.667 318.52 232.366 318.728 232.942 319.144C233.518 319.549 233.891 320.163 234.062 320.984L233.614 320.808C233.859 320.125 234.291 319.576 234.91 319.16C235.539 318.733 236.291 318.52 237.166 318.52Z" fill="black"/>
<path d="M417 290H287L287 71.1037C287 66.6282 290.628 63 295.104 63H408.896C413.372 63 417 66.6282 417 71.1037L417 290Z" fill="#6466E9"/>
<path d="M297.81 327.096C296.978 327.096 296.178 326.963 295.41 326.696C294.653 326.419 294.066 326.067 293.65 325.64L294.114 324.728C294.509 325.112 295.037 325.437 295.698 325.704C296.37 325.96 297.074 326.088 297.81 326.088C298.514 326.088 299.085 326.003 299.522 325.832C299.97 325.651 300.296 325.411 300.498 325.112C300.712 324.813 300.818 324.483 300.818 324.12C300.818 323.683 300.69 323.331 300.434 323.064C300.189 322.797 299.864 322.589 299.458 322.44C299.053 322.28 298.605 322.141 298.114 322.024C297.624 321.907 297.133 321.784 296.642 321.656C296.152 321.517 295.698 321.336 295.282 321.112C294.877 320.888 294.546 320.595 294.29 320.232C294.045 319.859 293.922 319.373 293.922 318.776C293.922 318.221 294.066 317.715 294.354 317.256C294.653 316.787 295.106 316.413 295.714 316.136C296.322 315.848 297.101 315.704 298.05 315.704C298.68 315.704 299.304 315.795 299.922 315.976C300.541 316.147 301.074 316.387 301.522 316.696L301.122 317.64C300.642 317.32 300.13 317.085 299.586 316.936C299.053 316.787 298.536 316.712 298.034 316.712C297.362 316.712 296.808 316.803 296.37 316.984C295.933 317.165 295.608 317.411 295.394 317.72C295.192 318.019 295.09 318.36 295.09 318.744C295.09 319.181 295.213 319.533 295.458 319.8C295.714 320.067 296.045 320.275 296.45 320.424C296.866 320.573 297.32 320.707 297.81 320.824C298.301 320.941 298.786 321.069 299.266 321.208C299.757 321.347 300.205 321.528 300.61 321.752C301.026 321.965 301.357 322.253 301.602 322.616C301.858 322.979 301.986 323.453 301.986 324.04C301.986 324.584 301.837 325.091 301.538 325.56C301.24 326.019 300.781 326.392 300.162 326.68C299.554 326.957 298.77 327.096 297.81 327.096ZM307.894 327.08C307.02 327.08 306.252 326.899 305.59 326.536C304.929 326.163 304.412 325.656 304.038 325.016C303.665 324.365 303.478 323.624 303.478 322.792C303.478 321.96 303.654 321.224 304.006 320.584C304.369 319.944 304.86 319.443 305.478 319.08C306.108 318.707 306.812 318.52 307.59 318.52C308.38 318.52 309.078 318.701 309.686 319.064C310.305 319.416 310.79 319.917 311.142 320.568C311.494 321.208 311.67 321.949 311.67 322.792C311.67 322.845 311.665 322.904 311.654 322.968C311.654 323.021 311.654 323.08 311.654 323.144H304.342V322.296H311.046L310.598 322.632C310.598 322.024 310.465 321.485 310.198 321.016C309.942 320.536 309.59 320.163 309.142 319.896C308.694 319.629 308.177 319.496 307.59 319.496C307.014 319.496 306.497 319.629 306.038 319.896C305.58 320.163 305.222 320.536 304.966 321.016C304.71 321.496 304.582 322.045 304.582 322.664V322.84C304.582 323.48 304.721 324.045 304.998 324.536C305.286 325.016 305.681 325.395 306.182 325.672C306.694 325.939 307.276 326.072 307.926 326.072C308.438 326.072 308.913 325.981 309.35 325.8C309.798 325.619 310.182 325.341 310.502 324.968L311.142 325.704C310.769 326.152 310.3 326.493 309.734 326.728C309.18 326.963 308.566 327.08 307.894 327.08ZM313.982 327V315.128H315.118V327H313.982ZM318.471 327V317.544C318.471 316.797 318.69 316.195 319.127 315.736C319.565 315.277 320.194 315.048 321.015 315.048C321.335 315.048 321.645 315.091 321.943 315.176C322.242 315.261 322.493 315.395 322.695 315.576L322.311 316.424C322.151 316.285 321.965 316.184 321.751 316.12C321.538 316.045 321.309 316.008 321.063 316.008C320.583 316.008 320.215 316.141 319.959 316.408C319.703 316.675 319.575 317.069 319.575 317.592V318.872L319.607 319.4V327H318.471ZM316.967 319.544V318.6H322.167V319.544H316.967ZM322.921 323.16V322.168H327.113V323.16H322.921ZM327.868 327L332.988 315.8H334.156L339.276 327H338.028L333.324 316.488H333.804L329.1 327H327.868ZM329.884 324.008L330.236 323.048H336.748L337.1 324.008H329.884ZM342.179 327L339.011 318.6H340.099L342.979 326.392H342.483L345.443 318.6H346.419L349.347 326.392H348.851L351.779 318.6H352.819L349.635 327H348.563L345.747 319.672H346.083L343.251 327H342.179ZM359.543 327V325.144L359.495 324.84V321.736C359.495 321.021 359.293 320.472 358.887 320.088C358.493 319.704 357.901 319.512 357.111 319.512C356.567 319.512 356.05 319.603 355.559 319.784C355.069 319.965 354.653 320.205 354.311 320.504L353.799 319.656C354.226 319.293 354.738 319.016 355.335 318.824C355.933 318.621 356.562 318.52 357.223 318.52C358.311 318.52 359.149 318.792 359.735 319.336C360.333 319.869 360.631 320.685 360.631 321.784V327H359.543ZM356.647 327.08C356.018 327.08 355.469 326.979 354.999 326.776C354.541 326.563 354.189 326.275 353.943 325.912C353.698 325.539 353.575 325.112 353.575 324.632C353.575 324.195 353.677 323.8 353.879 323.448C354.093 323.085 354.434 322.797 354.903 322.584C355.383 322.36 356.023 322.248 356.823 322.248H359.719V323.096H356.855C356.045 323.096 355.479 323.24 355.159 323.528C354.85 323.816 354.695 324.173 354.695 324.6C354.695 325.08 354.882 325.464 355.255 325.752C355.629 326.04 356.151 326.184 356.823 326.184C357.463 326.184 358.013 326.04 358.471 325.752C358.941 325.453 359.282 325.027 359.495 324.472L359.751 325.256C359.538 325.811 359.165 326.253 358.631 326.584C358.109 326.915 357.447 327.08 356.647 327.08ZM363.717 327V318.6H364.805V320.888L364.693 320.488C364.927 319.848 365.322 319.363 365.877 319.032C366.431 318.691 367.119 318.52 367.941 318.52V319.624C367.898 319.624 367.855 319.624 367.813 319.624C367.77 319.613 367.727 319.608 367.685 319.608C366.799 319.608 366.106 319.88 365.605 320.424C365.103 320.957 364.853 321.72 364.853 322.712V327H363.717ZM373.504 327.08C372.629 327.08 371.861 326.899 371.2 326.536C370.538 326.163 370.021 325.656 369.648 325.016C369.274 324.365 369.088 323.624 369.088 322.792C369.088 321.96 369.264 321.224 369.616 320.584C369.978 319.944 370.469 319.443 371.088 319.08C371.717 318.707 372.421 318.52 373.2 318.52C373.989 318.52 374.688 318.701 375.296 319.064C375.914 319.416 376.4 319.917 376.752 320.568C377.104 321.208 377.28 321.949 377.28 322.792C377.28 322.845 377.274 322.904 377.264 322.968C377.264 323.021 377.264 323.08 377.264 323.144H369.952V322.296H376.656L376.208 322.632C376.208 322.024 376.074 321.485 375.808 321.016C375.552 320.536 375.2 320.163 374.752 319.896C374.304 319.629 373.786 319.496 373.2 319.496C372.624 319.496 372.106 319.629 371.648 319.896C371.189 320.163 370.832 320.536 370.576 321.016C370.32 321.496 370.192 322.045 370.192 322.664V322.84C370.192 323.48 370.33 324.045 370.608 324.536C370.896 325.016 371.29 325.395 371.792 325.672C372.304 325.939 372.885 326.072 373.536 326.072C374.048 326.072 374.522 325.981 374.96 325.8C375.408 325.619 375.792 325.341 376.112 324.968L376.752 325.704C376.378 326.152 375.909 326.493 375.344 326.728C374.789 326.963 374.176 327.08 373.504 327.08ZM383.88 318.52C384.562 318.52 385.16 318.653 385.672 318.92C386.194 319.176 386.6 319.571 386.888 320.104C387.186 320.637 387.336 321.309 387.336 322.12V327H386.2V322.232C386.2 321.347 385.976 320.68 385.528 320.232C385.09 319.773 384.472 319.544 383.672 319.544C383.074 319.544 382.552 319.667 382.104 319.912C381.666 320.147 381.325 320.493 381.08 320.952C380.845 321.4 380.728 321.944 380.728 322.584V327H379.592V318.6H380.68V320.904L380.504 320.472C380.77 319.864 381.197 319.389 381.784 319.048C382.37 318.696 383.069 318.52 383.88 318.52ZM393.972 327.08C393.098 327.08 392.33 326.899 391.668 326.536C391.007 326.163 390.49 325.656 390.116 325.016C389.743 324.365 389.556 323.624 389.556 322.792C389.556 321.96 389.732 321.224 390.084 320.584C390.447 319.944 390.938 319.443 391.556 319.08C392.186 318.707 392.89 318.52 393.668 318.52C394.458 318.52 395.156 318.701 395.764 319.064C396.383 319.416 396.868 319.917 397.22 320.568C397.572 321.208 397.748 321.949 397.748 322.792C397.748 322.845 397.743 322.904 397.732 322.968C397.732 323.021 397.732 323.08 397.732 323.144H390.42V322.296H397.124L396.676 322.632C396.676 322.024 396.543 321.485 396.276 321.016C396.02 320.536 395.668 320.163 395.22 319.896C394.772 319.629 394.255 319.496 393.668 319.496C393.092 319.496 392.575 319.629 392.116 319.896C391.658 320.163 391.3 320.536 391.044 321.016C390.788 321.496 390.66 322.045 390.66 322.664V322.84C390.66 323.48 390.799 324.045 391.076 324.536C391.364 325.016 391.759 325.395 392.26 325.672C392.772 325.939 393.354 326.072 394.004 326.072C394.516 326.072 394.991 325.981 395.428 325.8C395.876 325.619 396.26 325.341 396.58 324.968L397.22 325.704C396.847 326.152 396.378 326.493 395.812 326.728C395.258 326.963 394.644 327.08 393.972 327.08ZM402.317 327.08C401.623 327.08 400.967 326.984 400.349 326.792C399.73 326.589 399.245 326.339 398.893 326.04L399.405 325.144C399.746 325.4 400.183 325.624 400.717 325.816C401.25 325.997 401.81 326.088 402.397 326.088C403.197 326.088 403.773 325.965 404.125 325.72C404.477 325.464 404.653 325.128 404.653 324.712C404.653 324.403 404.551 324.163 404.349 323.992C404.157 323.811 403.901 323.677 403.581 323.592C403.261 323.496 402.903 323.416 402.509 323.352C402.114 323.288 401.719 323.213 401.325 323.128C400.941 323.043 400.589 322.92 400.269 322.76C399.949 322.589 399.687 322.36 399.485 322.072C399.293 321.784 399.197 321.4 399.197 320.92C399.197 320.461 399.325 320.051 399.581 319.688C399.837 319.325 400.21 319.043 400.701 318.84C401.202 318.627 401.81 318.52 402.525 318.52C403.069 318.52 403.613 318.595 404.157 318.744C404.701 318.883 405.149 319.069 405.501 319.304L405.005 320.216C404.631 319.96 404.231 319.779 403.805 319.672C403.378 319.555 402.951 319.496 402.525 319.496C401.767 319.496 401.207 319.629 400.845 319.896C400.493 320.152 400.317 320.483 400.317 320.888C400.317 321.208 400.413 321.459 400.605 321.64C400.807 321.821 401.069 321.965 401.389 322.072C401.719 322.168 402.077 322.248 402.461 322.312C402.855 322.376 403.245 322.456 403.629 322.552C404.023 322.637 404.381 322.76 404.701 322.92C405.031 323.069 405.293 323.288 405.485 323.576C405.687 323.853 405.789 324.221 405.789 324.68C405.789 325.171 405.65 325.597 405.373 325.96C405.106 326.312 404.711 326.589 404.189 326.792C403.677 326.984 403.053 327.08 402.317 327.08ZM410.129 327.08C409.436 327.08 408.78 326.984 408.161 326.792C407.542 326.589 407.057 326.339 406.705 326.04L407.217 325.144C407.558 325.4 407.996 325.624 408.529 325.816C409.062 325.997 409.622 326.088 410.209 326.088C411.009 326.088 411.585 325.965 411.937 325.72C412.289 325.464 412.465 325.128 412.465 324.712C412.465 324.403 412.364 324.163 412.161 323.992C411.969 323.811 411.713 323.677 411.393 323.592C411.073 323.496 410.716 323.416 410.321 323.352C409.926 323.288 409.532 323.213 409.137 323.128C408.753 323.043 408.401 322.92 408.081 322.76C407.761 322.589 407.5 322.36 407.297 322.072C407.105 321.784 407.009 321.4 407.009 320.92C407.009 320.461 407.137 320.051 407.393 319.688C407.649 319.325 408.022 319.043 408.513 318.84C409.014 318.627 409.622 318.52 410.337 318.52C410.881 318.52 411.425 318.595 411.969 318.744C412.513 318.883 412.961 319.069 413.313 319.304L412.817 320.216C412.444 319.96 412.044 319.779 411.617 319.672C411.19 319.555 410.764 319.496 410.337 319.496C409.58 319.496 409.02 319.629 408.657 319.896C408.305 320.152 408.129 320.483 408.129 320.888C408.129 321.208 408.225 321.459 408.417 321.64C408.62 321.821 408.881 321.965 409.201 322.072C409.532 322.168 409.889 322.248 410.273 322.312C410.668 322.376 411.057 322.456 411.441 322.552C411.836 322.637 412.193 322.76 412.513 322.92C412.844 323.069 413.105 323.288 413.297 323.576C413.5 323.853 413.601 324.221 413.601 324.68C413.601 325.171 413.462 325.597 413.185 325.96C412.918 326.312 412.524 326.589 412.001 326.792C411.489 326.984 410.865 327.08 410.129 327.08Z" fill="black"/>
<path d="M570.746 290H454.746L454.746 71.1037C454.746 66.6282 458.374 63 462.85 63H562.642C567.118 63 570.746 66.6282 570.746 71.1037V290Z" fill="#55E6C1"/>
<path d="M485.133 327.096C484.291 327.096 483.512 326.957 482.797 326.68C482.083 326.392 481.464 325.992 480.941 325.48C480.419 324.968 480.008 324.365 479.709 323.672C479.421 322.979 479.277 322.221 479.277 321.4C479.277 320.579 479.421 319.821 479.709 319.128C480.008 318.435 480.419 317.832 480.941 317.32C481.475 316.808 482.099 316.413 482.813 316.136C483.528 315.848 484.307 315.704 485.149 315.704C485.96 315.704 486.723 315.843 487.437 316.12C488.152 316.387 488.755 316.792 489.245 317.336L488.493 318.088C488.035 317.619 487.528 317.283 486.973 317.08C486.419 316.867 485.821 316.76 485.181 316.76C484.509 316.76 483.885 316.877 483.309 317.112C482.733 317.336 482.232 317.661 481.805 318.088C481.379 318.504 481.043 318.995 480.797 319.56C480.563 320.115 480.445 320.728 480.445 321.4C480.445 322.072 480.563 322.691 480.797 323.256C481.043 323.811 481.379 324.301 481.805 324.728C482.232 325.144 482.733 325.469 483.309 325.704C483.885 325.928 484.509 326.04 485.181 326.04C485.821 326.04 486.419 325.933 486.973 325.72C487.528 325.507 488.035 325.165 488.493 324.696L489.245 325.448C488.755 325.992 488.152 326.403 487.437 326.68C486.723 326.957 485.955 327.096 485.133 327.096ZM494.578 327.08C493.768 327.08 493.037 326.899 492.386 326.536C491.746 326.163 491.24 325.656 490.866 325.016C490.493 324.365 490.306 323.624 490.306 322.792C490.306 321.949 490.493 321.208 490.866 320.568C491.24 319.928 491.746 319.427 492.386 319.064C493.026 318.701 493.757 318.52 494.578 318.52C495.41 318.52 496.146 318.701 496.786 319.064C497.437 319.427 497.944 319.928 498.306 320.568C498.68 321.208 498.866 321.949 498.866 322.792C498.866 323.624 498.68 324.365 498.306 325.016C497.944 325.656 497.437 326.163 496.786 326.536C496.136 326.899 495.4 327.08 494.578 327.08ZM494.578 326.072C495.186 326.072 495.725 325.939 496.194 325.672C496.664 325.395 497.032 325.011 497.298 324.52C497.576 324.019 497.714 323.443 497.714 322.792C497.714 322.131 497.576 321.555 497.298 321.064C497.032 320.573 496.664 320.195 496.194 319.928C495.725 319.651 495.192 319.512 494.594 319.512C493.997 319.512 493.464 319.651 492.994 319.928C492.525 320.195 492.152 320.573 491.874 321.064C491.597 321.555 491.458 322.131 491.458 322.792C491.458 323.443 491.597 324.019 491.874 324.52C492.152 325.011 492.525 325.395 492.994 325.672C493.464 325.939 493.992 326.072 494.578 326.072ZM504.77 330.184C504.002 330.184 503.266 330.072 502.562 329.848C501.858 329.624 501.287 329.304 500.85 328.888L501.426 328.024C501.82 328.376 502.306 328.653 502.882 328.856C503.468 329.069 504.087 329.176 504.738 329.176C505.804 329.176 506.588 328.925 507.09 328.424C507.591 327.933 507.842 327.165 507.842 326.12V324.024L508.002 322.584L507.89 321.144V318.6H508.978V325.976C508.978 327.427 508.62 328.488 507.906 329.16C507.202 329.843 506.156 330.184 504.77 330.184ZM504.562 326.68C503.762 326.68 503.042 326.509 502.402 326.168C501.762 325.816 501.255 325.331 500.882 324.712C500.519 324.093 500.338 323.384 500.338 322.584C500.338 321.784 500.519 321.08 500.882 320.472C501.255 319.853 501.762 319.373 502.402 319.032C503.042 318.691 503.762 318.52 504.562 318.52C505.308 318.52 505.98 318.675 506.578 318.984C507.175 319.293 507.65 319.752 508.002 320.36C508.354 320.968 508.53 321.709 508.53 322.584C508.53 323.459 508.354 324.2 508.002 324.808C507.65 325.416 507.175 325.88 506.578 326.2C505.98 326.52 505.308 326.68 504.562 326.68ZM504.674 325.672C505.292 325.672 505.842 325.544 506.322 325.288C506.802 325.021 507.18 324.659 507.458 324.2C507.735 323.731 507.874 323.192 507.874 322.584C507.874 321.976 507.735 321.443 507.458 320.984C507.18 320.525 506.802 320.168 506.322 319.912C505.842 319.645 505.292 319.512 504.674 319.512C504.066 319.512 503.516 319.645 503.026 319.912C502.546 320.168 502.167 320.525 501.89 320.984C501.623 321.443 501.49 321.976 501.49 322.584C501.49 323.192 501.623 323.731 501.89 324.2C502.167 324.659 502.546 325.021 503.026 325.288C503.516 325.544 504.066 325.672 504.674 325.672ZM516.427 318.52C517.109 318.52 517.707 318.653 518.219 318.92C518.741 319.176 519.147 319.571 519.435 320.104C519.733 320.637 519.883 321.309 519.883 322.12V327H518.747V322.232C518.747 321.347 518.523 320.68 518.075 320.232C517.637 319.773 517.019 319.544 516.219 319.544C515.621 319.544 515.099 319.667 514.651 319.912C514.213 320.147 513.872 320.493 513.627 320.952C513.392 321.4 513.275 321.944 513.275 322.584V327H512.139V318.6H513.227V320.904L513.051 320.472C513.317 319.864 513.744 319.389 514.331 319.048C514.917 318.696 515.616 318.52 516.427 318.52ZM522.951 327V318.6H524.087V327H522.951ZM523.527 316.744C523.293 316.744 523.095 316.664 522.935 316.504C522.775 316.344 522.695 316.152 522.695 315.928C522.695 315.704 522.775 315.517 522.935 315.368C523.095 315.208 523.293 315.128 523.527 315.128C523.762 315.128 523.959 315.203 524.119 315.352C524.279 315.501 524.359 315.688 524.359 315.912C524.359 316.147 524.279 316.344 524.119 316.504C523.97 316.664 523.773 316.744 523.527 316.744ZM529.904 327.08C529.115 327.08 528.507 326.867 528.08 326.44C527.653 326.013 527.44 325.411 527.44 324.632V316.744H528.576V324.568C528.576 325.059 528.699 325.437 528.944 325.704C529.2 325.971 529.563 326.104 530.032 326.104C530.533 326.104 530.949 325.96 531.28 325.672L531.68 326.488C531.456 326.691 531.184 326.84 530.864 326.936C530.555 327.032 530.235 327.08 529.904 327.08ZM525.936 319.544V318.6H531.136V319.544H525.936ZM533.748 327V318.6H534.884V327H533.748ZM534.324 316.744C534.089 316.744 533.892 316.664 533.732 316.504C533.572 316.344 533.492 316.152 533.492 315.928C533.492 315.704 533.572 315.517 533.732 315.368C533.892 315.208 534.089 315.128 534.324 315.128C534.559 315.128 534.756 315.203 534.916 315.352C535.076 315.501 535.156 315.688 535.156 315.912C535.156 316.147 535.076 316.344 534.916 316.504C534.767 316.664 534.569 316.744 534.324 316.744ZM540.205 327L536.477 318.6H537.661L541.085 326.392H540.525L543.997 318.6H545.117L541.373 327H540.205ZM550.05 327.08C549.176 327.08 548.408 326.899 547.746 326.536C547.085 326.163 546.568 325.656 546.194 325.016C545.821 324.365 545.634 323.624 545.634 322.792C545.634 321.96 545.81 321.224 546.162 320.584C546.525 319.944 547.016 319.443 547.634 319.08C548.264 318.707 548.968 318.52 549.746 318.52C550.536 318.52 551.234 318.701 551.842 319.064C552.461 319.416 552.946 319.917 553.298 320.568C553.65 321.208 553.826 321.949 553.826 322.792C553.826 322.845 553.821 322.904 553.81 322.968C553.81 323.021 553.81 323.08 553.81 323.144H546.498V322.296H553.202L552.754 322.632C552.754 322.024 552.621 321.485 552.354 321.016C552.098 320.536 551.746 320.163 551.298 319.896C550.85 319.629 550.333 319.496 549.746 319.496C549.17 319.496 548.653 319.629 548.194 319.896C547.736 320.163 547.378 320.536 547.122 321.016C546.866 321.496 546.738 322.045 546.738 322.664V322.84C546.738 323.48 546.877 324.045 547.154 324.536C547.442 325.016 547.837 325.395 548.338 325.672C548.85 325.939 549.432 326.072 550.082 326.072C550.594 326.072 551.069 325.981 551.506 325.8C551.954 325.619 552.338 325.341 552.658 324.968L553.298 325.704C552.925 326.152 552.456 326.493 551.89 326.728C551.336 326.963 550.722 327.08 550.05 327.08ZM474.993 347.096C474.15 347.096 473.371 346.957 472.657 346.68C471.942 346.392 471.323 345.992 470.801 345.48C470.278 344.968 469.867 344.365 469.569 343.672C469.281 342.979 469.137 342.221 469.137 341.4C469.137 340.579 469.281 339.821 469.569 339.128C469.867 338.435 470.278 337.832 470.801 337.32C471.334 336.808 471.958 336.413 472.673 336.136C473.387 335.848 474.166 335.704 475.009 335.704C475.819 335.704 476.582 335.843 477.297 336.12C478.011 336.387 478.614 336.792 479.105 337.336L478.353 338.088C477.894 337.619 477.387 337.283 476.833 337.08C476.278 336.867 475.681 336.76 475.041 336.76C474.369 336.76 473.745 336.877 473.169 337.112C472.593 337.336 472.091 337.661 471.665 338.088C471.238 338.504 470.902 338.995 470.657 339.56C470.422 340.115 470.305 340.728 470.305 341.4C470.305 342.072 470.422 342.691 470.657 343.256C470.902 343.811 471.238 344.301 471.665 344.728C472.091 345.144 472.593 345.469 473.169 345.704C473.745 345.928 474.369 346.04 475.041 346.04C475.681 346.04 476.278 345.933 476.833 345.72C477.387 345.507 477.894 345.165 478.353 344.696L479.105 345.448C478.614 345.992 478.011 346.403 477.297 346.68C476.582 346.957 475.814 347.096 474.993 347.096ZM484.438 347.08C483.627 347.08 482.896 346.899 482.246 346.536C481.606 346.163 481.099 345.656 480.726 345.016C480.352 344.365 480.166 343.624 480.166 342.792C480.166 341.949 480.352 341.208 480.726 340.568C481.099 339.928 481.606 339.427 482.246 339.064C482.886 338.701 483.616 338.52 484.438 338.52C485.27 338.52 486.006 338.701 486.646 339.064C487.296 339.427 487.803 339.928 488.166 340.568C488.539 341.208 488.726 341.949 488.726 342.792C488.726 343.624 488.539 344.365 488.166 345.016C487.803 345.656 487.296 346.163 486.646 346.536C485.995 346.899 485.259 347.08 484.438 347.08ZM484.438 346.072C485.046 346.072 485.584 345.939 486.054 345.672C486.523 345.395 486.891 345.011 487.158 344.52C487.435 344.019 487.574 343.443 487.574 342.792C487.574 342.131 487.435 341.555 487.158 341.064C486.891 340.573 486.523 340.195 486.054 339.928C485.584 339.651 485.051 339.512 484.454 339.512C483.856 339.512 483.323 339.651 482.854 339.928C482.384 340.195 482.011 340.573 481.734 341.064C481.456 341.555 481.318 342.131 481.318 342.792C481.318 343.443 481.456 344.019 481.734 344.52C482.011 345.011 482.384 345.395 482.854 345.672C483.323 345.939 483.851 346.072 484.438 346.072ZM495.333 338.52C496.016 338.52 496.613 338.653 497.125 338.92C497.648 339.176 498.053 339.571 498.341 340.104C498.64 340.637 498.789 341.309 498.789 342.12V347H497.653V342.232C497.653 341.347 497.429 340.68 496.981 340.232C496.544 339.773 495.925 339.544 495.125 339.544C494.528 339.544 494.005 339.667 493.557 339.912C493.12 340.147 492.778 340.493 492.533 340.952C492.298 341.4 492.181 341.944 492.181 342.584V347H491.045V338.6H492.133V340.904L491.957 340.472C492.224 339.864 492.65 339.389 493.237 339.048C493.824 338.696 494.522 338.52 495.333 338.52ZM504.513 347.08C503.724 347.08 503.116 346.867 502.689 346.44C502.263 346.013 502.049 345.411 502.049 344.632V336.744H503.185V344.568C503.185 345.059 503.308 345.437 503.553 345.704C503.809 345.971 504.172 346.104 504.641 346.104C505.143 346.104 505.559 345.96 505.889 345.672L506.289 346.488C506.065 346.691 505.793 346.84 505.473 346.936C505.164 347.032 504.844 347.08 504.513 347.08ZM500.545 339.544V338.6H505.745V339.544H500.545ZM508.357 347V338.6H509.445V340.888L509.333 340.488C509.568 339.848 509.963 339.363 510.517 339.032C511.072 338.691 511.76 338.52 512.581 338.52V339.624C512.539 339.624 512.496 339.624 512.453 339.624C512.411 339.613 512.368 339.608 512.325 339.608C511.44 339.608 510.747 339.88 510.245 340.424C509.744 340.957 509.493 341.72 509.493 342.712V347H508.357ZM518.251 347.08C517.537 347.08 516.913 346.947 516.379 346.68C515.846 346.413 515.43 346.013 515.131 345.48C514.843 344.947 514.699 344.28 514.699 343.48V338.6H515.835V343.352C515.835 344.248 516.054 344.925 516.491 345.384C516.939 345.832 517.563 346.056 518.363 346.056C518.95 346.056 519.457 345.939 519.883 345.704C520.321 345.459 520.651 345.107 520.875 344.648C521.11 344.189 521.227 343.64 521.227 343V338.6H522.363V347H521.275V344.696L521.451 345.112C521.185 345.731 520.769 346.216 520.203 346.568C519.649 346.909 518.998 347.08 518.251 347.08ZM529.017 347.08C528.185 347.08 527.439 346.899 526.777 346.536C526.127 346.163 525.615 345.656 525.241 345.016C524.868 344.365 524.681 343.624 524.681 342.792C524.681 341.949 524.868 341.208 525.241 340.568C525.615 339.928 526.127 339.427 526.777 339.064C527.439 338.701 528.185 338.52 529.017 338.52C529.732 338.52 530.377 338.659 530.953 338.936C531.529 339.213 531.983 339.629 532.313 340.184L531.465 340.76C531.177 340.333 530.82 340.019 530.393 339.816C529.967 339.613 529.503 339.512 529.001 339.512C528.404 339.512 527.865 339.651 527.385 339.928C526.905 340.195 526.527 340.573 526.249 341.064C525.972 341.555 525.833 342.131 525.833 342.792C525.833 343.453 525.972 344.029 526.249 344.52C526.527 345.011 526.905 345.395 527.385 345.672C527.865 345.939 528.404 346.072 529.001 346.072C529.503 346.072 529.967 345.971 530.393 345.768C530.82 345.565 531.177 345.256 531.465 344.84L532.313 345.416C531.983 345.96 531.529 346.376 530.953 346.664C530.377 346.941 529.732 347.08 529.017 347.08ZM537.295 347.08C536.505 347.08 535.897 346.867 535.471 346.44C535.044 346.013 534.831 345.411 534.831 344.632V336.744H535.967V344.568C535.967 345.059 536.089 345.437 536.335 345.704C536.591 345.971 536.953 346.104 537.423 346.104C537.924 346.104 538.34 345.96 538.671 345.672L539.071 346.488C538.847 346.691 538.575 346.84 538.255 346.936C537.945 347.032 537.625 347.08 537.295 347.08ZM533.327 339.544V338.6H538.527V339.544H533.327ZM541.139 347V338.6H542.275V347H541.139ZM541.715 336.744C541.48 336.744 541.283 336.664 541.123 336.504C540.963 336.344 540.883 336.152 540.883 335.928C540.883 335.704 540.963 335.517 541.123 335.368C541.283 335.208 541.48 335.128 541.715 335.128C541.949 335.128 542.147 335.203 542.307 335.352C542.467 335.501 542.547 335.688 542.547 335.912C542.547 336.147 542.467 336.344 542.307 336.504C542.157 336.664 541.96 336.744 541.715 336.744ZM548.86 347.08C548.049 347.08 547.318 346.899 546.668 346.536C546.028 346.163 545.521 345.656 545.148 345.016C544.774 344.365 544.588 343.624 544.588 342.792C544.588 341.949 544.774 341.208 545.148 340.568C545.521 339.928 546.028 339.427 546.668 339.064C547.308 338.701 548.038 338.52 548.86 338.52C549.692 338.52 550.428 338.701 551.068 339.064C551.718 339.427 552.225 339.928 552.588 340.568C552.961 341.208 553.148 341.949 553.148 342.792C553.148 343.624 552.961 344.365 552.588 345.016C552.225 345.656 551.718 346.163 551.068 346.536C550.417 346.899 549.681 347.08 548.86 347.08ZM548.86 346.072C549.468 346.072 550.006 345.939 550.476 345.672C550.945 345.395 551.313 345.011 551.58 344.52C551.857 344.019 551.996 343.443 551.996 342.792C551.996 342.131 551.857 341.555 551.58 341.064C551.313 340.573 550.945 340.195 550.476 339.928C550.006 339.651 549.473 339.512 548.876 339.512C548.278 339.512 547.745 339.651 547.276 339.928C546.806 340.195 546.433 340.573 546.156 341.064C545.878 341.555 545.74 342.131 545.74 342.792C545.74 343.443 545.878 344.019 546.156 344.52C546.433 345.011 546.806 345.395 547.276 345.672C547.745 345.939 548.273 346.072 548.86 346.072ZM559.755 338.52C560.437 338.52 561.035 338.653 561.547 338.92C562.069 339.176 562.475 339.571 562.763 340.104C563.061 340.637 563.211 341.309 563.211 342.12V347H562.075V342.232C562.075 341.347 561.851 340.68 561.403 340.232C560.965 339.773 560.347 339.544 559.547 339.544C558.949 339.544 558.427 339.667 557.979 339.912C557.541 340.147 557.2 340.493 556.955 340.952C556.72 341.4 556.603 341.944 556.603 342.584V347H555.467V338.6H556.555V340.904L556.379 340.472C556.645 339.864 557.072 339.389 557.659 339.048C558.245 338.696 558.944 338.52 559.755 338.52Z" fill="black"/>
<path d="M722.492 290H616.492V137.104C616.492 132.628 620.12 129 624.596 129H714.388C718.864 129 722.492 132.628 722.492 137.104V290Z" fill="#ED4C67"/>
<path d="M645.657 327.096C644.814 327.096 644.035 326.957 643.321 326.68C642.606 326.392 641.987 325.992 641.465 325.48C640.942 324.968 640.531 324.365 640.233 323.672C639.945 322.979 639.801 322.221 639.801 321.4C639.801 320.579 639.945 319.821 640.233 319.128C640.531 318.435 640.942 317.832 641.465 317.32C641.998 316.808 642.622 316.413 643.337 316.136C644.051 315.848 644.83 315.704 645.673 315.704C646.483 315.704 647.246 315.843 647.961 316.12C648.675 316.387 649.278 316.792 649.769 317.336L649.017 318.088C648.558 317.619 648.051 317.283 647.497 317.08C646.942 316.867 646.345 316.76 645.705 316.76C645.033 316.76 644.409 316.877 643.833 317.112C643.257 317.336 642.755 317.661 642.329 318.088C641.902 318.504 641.566 318.995 641.321 319.56C641.086 320.115 640.969 320.728 640.969 321.4C640.969 322.072 641.086 322.691 641.321 323.256C641.566 323.811 641.902 324.301 642.329 324.728C642.755 325.144 643.257 325.469 643.833 325.704C644.409 325.928 645.033 326.04 645.705 326.04C646.345 326.04 646.942 325.933 647.497 325.72C648.051 325.507 648.558 325.165 649.017 324.696L649.769 325.448C649.278 325.992 648.675 326.403 647.961 326.68C647.246 326.957 646.478 327.096 645.657 327.096ZM655.102 327.08C654.291 327.08 653.56 326.899 652.91 326.536C652.27 326.163 651.763 325.656 651.39 325.016C651.016 324.365 650.83 323.624 650.83 322.792C650.83 321.949 651.016 321.208 651.39 320.568C651.763 319.928 652.27 319.427 652.91 319.064C653.55 318.701 654.28 318.52 655.102 318.52C655.934 318.52 656.67 318.701 657.31 319.064C657.96 319.427 658.467 319.928 658.83 320.568C659.203 321.208 659.39 321.949 659.39 322.792C659.39 323.624 659.203 324.365 658.83 325.016C658.467 325.656 657.96 326.163 657.31 326.536C656.659 326.899 655.923 327.08 655.102 327.08ZM655.102 326.072C655.71 326.072 656.248 325.939 656.718 325.672C657.187 325.395 657.555 325.011 657.822 324.52C658.099 324.019 658.238 323.443 658.238 322.792C658.238 322.131 658.099 321.555 657.822 321.064C657.555 320.573 657.187 320.195 656.718 319.928C656.248 319.651 655.715 319.512 655.118 319.512C654.52 319.512 653.987 319.651 653.518 319.928C653.048 320.195 652.675 320.573 652.398 321.064C652.12 321.555 651.982 322.131 651.982 322.792C651.982 323.443 652.12 324.019 652.398 324.52C652.675 325.011 653.048 325.395 653.518 325.672C653.987 325.939 654.515 326.072 655.102 326.072ZM666.045 327.08C665.32 327.08 664.664 326.915 664.077 326.584C663.49 326.243 663.021 325.757 662.669 325.128C662.328 324.488 662.157 323.709 662.157 322.792C662.157 321.875 662.328 321.101 662.669 320.472C663.01 319.832 663.474 319.347 664.061 319.016C664.648 318.685 665.309 318.52 666.045 318.52C666.845 318.52 667.56 318.701 668.189 319.064C668.829 319.416 669.33 319.917 669.693 320.568C670.056 321.208 670.237 321.949 670.237 322.792C670.237 323.645 670.056 324.392 669.693 325.032C669.33 325.672 668.829 326.173 668.189 326.536C667.56 326.899 666.845 327.08 666.045 327.08ZM661.709 330.104V318.6H662.797V321.128L662.685 322.808L662.845 324.504V330.104H661.709ZM665.965 326.072C666.562 326.072 667.096 325.939 667.565 325.672C668.034 325.395 668.408 325.011 668.685 324.52C668.962 324.019 669.101 323.443 669.101 322.792C669.101 322.141 668.962 321.571 668.685 321.08C668.408 320.589 668.034 320.205 667.565 319.928C667.096 319.651 666.562 319.512 665.965 319.512C665.368 319.512 664.829 319.651 664.349 319.928C663.88 320.205 663.506 320.589 663.229 321.08C662.962 321.571 662.829 322.141 662.829 322.792C662.829 323.443 662.962 324.019 663.229 324.52C663.506 325.011 663.88 325.395 664.349 325.672C664.829 325.939 665.368 326.072 665.965 326.072ZM672.553 327V318.6H673.689V327H672.553ZM673.129 316.744C672.894 316.744 672.697 316.664 672.537 316.504C672.377 316.344 672.297 316.152 672.297 315.928C672.297 315.704 672.377 315.517 672.537 315.368C672.697 315.208 672.894 315.128 673.129 315.128C673.363 315.128 673.561 315.203 673.721 315.352C673.881 315.501 673.961 315.688 673.961 315.912C673.961 316.147 673.881 316.344 673.721 316.504C673.571 316.664 673.374 316.744 673.129 316.744ZM681.138 318.52C681.82 318.52 682.418 318.653 682.93 318.92C683.452 319.176 683.858 319.571 684.146 320.104C684.444 320.637 684.594 321.309 684.594 322.12V327H683.458V322.232C683.458 321.347 683.234 320.68 682.786 320.232C682.348 319.773 681.73 319.544 680.93 319.544C680.332 319.544 679.81 319.667 679.362 319.912C678.924 320.147 678.583 320.493 678.338 320.952C678.103 321.4 677.986 321.944 677.986 322.584V327H676.85V318.6H677.938V320.904L677.762 320.472C678.028 319.864 678.455 319.389 679.042 319.048C679.628 318.696 680.327 318.52 681.138 318.52ZM691.246 330.184C690.478 330.184 689.742 330.072 689.038 329.848C688.334 329.624 687.763 329.304 687.326 328.888L687.902 328.024C688.297 328.376 688.782 328.653 689.358 328.856C689.945 329.069 690.563 329.176 691.214 329.176C692.281 329.176 693.065 328.925 693.566 328.424C694.067 327.933 694.318 327.165 694.318 326.12V324.024L694.478 322.584L694.366 321.144V318.6H695.454V325.976C695.454 327.427 695.097 328.488 694.382 329.16C693.678 329.843 692.633 330.184 691.246 330.184ZM691.038 326.68C690.238 326.68 689.518 326.509 688.878 326.168C688.238 325.816 687.731 325.331 687.358 324.712C686.995 324.093 686.814 323.384 686.814 322.584C686.814 321.784 686.995 321.08 687.358 320.472C687.731 319.853 688.238 319.373 688.878 319.032C689.518 318.691 690.238 318.52 691.038 318.52C691.785 318.52 692.457 318.675 693.054 318.984C693.651 319.293 694.126 319.752 694.478 320.36C694.83 320.968 695.006 321.709 695.006 322.584C695.006 323.459 694.83 324.2 694.478 324.808C694.126 325.416 693.651 325.88 693.054 326.2C692.457 326.52 691.785 326.68 691.038 326.68ZM691.15 325.672C691.769 325.672 692.318 325.544 692.798 325.288C693.278 325.021 693.657 324.659 693.934 324.2C694.211 323.731 694.35 323.192 694.35 322.584C694.35 321.976 694.211 321.443 693.934 320.984C693.657 320.525 693.278 320.168 692.798 319.912C692.318 319.645 691.769 319.512 691.15 319.512C690.542 319.512 689.993 319.645 689.502 319.912C689.022 320.168 688.643 320.525 688.366 320.984C688.099 321.443 687.966 321.976 687.966 322.584C687.966 323.192 688.099 323.731 688.366 324.2C688.643 324.659 689.022 325.021 689.502 325.288C689.993 325.544 690.542 325.672 691.15 325.672Z" fill="black"/>
<path d="M865.568 290H770.568V71.1037C770.568 66.6282 774.197 63 778.672 63H857.465C861.94 63 865.568 66.6282 865.568 71.1037V290Z" fill="#FFC312"/>
<path d="M767.285 326.903V315.703H768.469V326.903H767.285ZM776.161 318.423C776.844 318.423 777.441 318.557 777.953 318.823C778.476 319.079 778.881 319.474 779.169 320.007C779.468 320.541 779.617 321.213 779.617 322.023V326.903H778.481V322.135C778.481 321.25 778.257 320.583 777.809 320.135C777.372 319.677 776.753 319.447 775.953 319.447C775.356 319.447 774.833 319.57 774.385 319.815C773.948 320.05 773.606 320.397 773.361 320.855C773.126 321.303 773.009 321.847 773.009 322.487V326.903H771.873V318.503H772.961V320.807L772.785 320.375C773.052 319.767 773.478 319.293 774.065 318.951C774.652 318.599 775.35 318.423 776.161 318.423ZM785.342 326.983C784.552 326.983 783.944 326.77 783.518 326.343C783.091 325.917 782.878 325.314 782.878 324.535V316.647H784.014V324.471C784.014 324.962 784.136 325.341 784.382 325.607C784.638 325.874 785 326.007 785.47 326.007C785.971 326.007 786.387 325.863 786.718 325.575L787.118 326.391C786.894 326.594 786.622 326.743 786.302 326.839C785.992 326.935 785.672 326.983 785.342 326.983ZM781.374 319.447V318.503H786.574V319.447H781.374ZM792.457 326.983C791.582 326.983 790.814 326.802 790.153 326.439C789.491 326.066 788.974 325.559 788.601 324.919C788.227 324.269 788.041 323.527 788.041 322.695C788.041 321.863 788.217 321.127 788.569 320.487C788.931 319.847 789.422 319.346 790.041 318.983C790.67 318.61 791.374 318.423 792.153 318.423C792.942 318.423 793.641 318.605 794.249 318.967C794.867 319.319 795.353 319.821 795.705 320.471C796.057 321.111 796.233 321.853 796.233 322.695C796.233 322.749 796.227 322.807 796.217 322.871C796.217 322.925 796.217 322.983 796.217 323.047H788.905V322.199H795.609L795.161 322.535C795.161 321.927 795.027 321.389 794.761 320.919C794.505 320.439 794.153 320.066 793.705 319.799C793.257 319.533 792.739 319.399 792.153 319.399C791.577 319.399 791.059 319.533 790.601 319.799C790.142 320.066 789.785 320.439 789.529 320.919C789.273 321.399 789.145 321.949 789.145 322.567V322.743C789.145 323.383 789.283 323.949 789.561 324.439C789.849 324.919 790.243 325.298 790.745 325.575C791.257 325.842 791.838 325.975 792.489 325.975C793.001 325.975 793.475 325.885 793.913 325.703C794.361 325.522 794.745 325.245 795.065 324.871L795.705 325.607C795.331 326.055 794.862 326.397 794.297 326.631C793.742 326.866 793.129 326.983 792.457 326.983ZM798.545 326.903V318.503H799.633V320.791L799.521 320.391C799.756 319.751 800.15 319.266 800.705 318.935C801.26 318.594 801.948 318.423 802.769 318.423V319.527C802.726 319.527 802.684 319.527 802.641 319.527C802.598 319.517 802.556 319.511 802.513 319.511C801.628 319.511 800.934 319.783 800.433 320.327C799.932 320.861 799.681 321.623 799.681 322.615V326.903H798.545ZM809.178 326.983C808.452 326.983 807.796 326.818 807.21 326.487C806.623 326.146 806.154 325.661 805.802 325.031C805.46 324.391 805.29 323.613 805.29 322.695C805.29 321.778 805.46 321.005 805.802 320.375C806.143 319.735 806.607 319.25 807.194 318.919C807.78 318.589 808.442 318.423 809.178 318.423C809.978 318.423 810.692 318.605 811.322 318.967C811.962 319.319 812.463 319.821 812.826 320.471C813.188 321.111 813.37 321.853 813.37 322.695C813.37 323.549 813.188 324.295 812.826 324.935C812.463 325.575 811.962 326.077 811.322 326.439C810.692 326.802 809.978 326.983 809.178 326.983ZM804.842 330.007V318.503H805.93V321.031L805.818 322.711L805.978 324.407V330.007H804.842ZM809.098 325.975C809.695 325.975 810.228 325.842 810.698 325.575C811.167 325.298 811.54 324.914 811.818 324.423C812.095 323.922 812.234 323.346 812.234 322.695C812.234 322.045 812.095 321.474 811.818 320.983C811.54 320.493 811.167 320.109 810.698 319.831C810.228 319.554 809.695 319.415 809.098 319.415C808.5 319.415 807.962 319.554 807.482 319.831C807.012 320.109 806.639 320.493 806.362 320.983C806.095 321.474 805.962 322.045 805.962 322.695C805.962 323.346 806.095 323.922 806.362 324.423C806.639 324.914 807.012 325.298 807.482 325.575C807.962 325.842 808.5 325.975 809.098 325.975ZM819.254 326.983C818.379 326.983 817.611 326.802 816.95 326.439C816.288 326.066 815.771 325.559 815.398 324.919C815.024 324.269 814.838 323.527 814.838 322.695C814.838 321.863 815.014 321.127 815.366 320.487C815.728 319.847 816.219 319.346 816.838 318.983C817.467 318.61 818.171 318.423 818.95 318.423C819.739 318.423 820.438 318.605 821.046 318.967C821.664 319.319 822.15 319.821 822.502 320.471C822.854 321.111 823.03 321.853 823.03 322.695C823.03 322.749 823.024 322.807 823.014 322.871C823.014 322.925 823.014 322.983 823.014 323.047H815.702V322.199H822.406L821.958 322.535C821.958 321.927 821.824 321.389 821.558 320.919C821.302 320.439 820.95 320.066 820.502 319.799C820.054 319.533 819.536 319.399 818.95 319.399C818.374 319.399 817.856 319.533 817.398 319.799C816.939 320.066 816.582 320.439 816.326 320.919C816.07 321.399 815.942 321.949 815.942 322.567V322.743C815.942 323.383 816.08 323.949 816.358 324.439C816.646 324.919 817.04 325.298 817.542 325.575C818.054 325.842 818.635 325.975 819.286 325.975C819.798 325.975 820.272 325.885 820.71 325.703C821.158 325.522 821.542 325.245 821.862 324.871L822.502 325.607C822.128 326.055 821.659 326.397 821.094 326.631C820.539 326.866 819.926 326.983 819.254 326.983ZM825.342 326.903V318.503H826.43V320.791L826.318 320.391C826.552 319.751 826.947 319.266 827.502 318.935C828.056 318.594 828.744 318.423 829.566 318.423V319.527C829.523 319.527 829.48 319.527 829.438 319.527C829.395 319.517 829.352 319.511 829.31 319.511C828.424 319.511 827.731 319.783 827.23 320.327C826.728 320.861 826.478 321.623 826.478 322.615V326.903H825.342ZM833.988 326.983C833.295 326.983 832.639 326.887 832.02 326.695C831.402 326.493 830.916 326.242 830.564 325.943L831.076 325.047C831.418 325.303 831.855 325.527 832.388 325.719C832.922 325.901 833.482 325.991 834.068 325.991C834.868 325.991 835.444 325.869 835.796 325.623C836.148 325.367 836.324 325.031 836.324 324.615C836.324 324.306 836.223 324.066 836.02 323.895C835.828 323.714 835.572 323.581 835.252 323.495C834.932 323.399 834.575 323.319 834.18 323.255C833.786 323.191 833.391 323.117 832.996 323.031C832.612 322.946 832.26 322.823 831.94 322.663C831.62 322.493 831.359 322.263 831.156 321.975C830.964 321.687 830.868 321.303 830.868 320.823C830.868 320.365 830.996 319.954 831.252 319.591C831.508 319.229 831.882 318.946 832.372 318.743C832.874 318.53 833.482 318.423 834.196 318.423C834.74 318.423 835.284 318.498 835.828 318.647C836.372 318.786 836.82 318.973 837.172 319.207L836.676 320.119C836.303 319.863 835.903 319.682 835.476 319.575C835.05 319.458 834.623 319.399 834.196 319.399C833.439 319.399 832.879 319.533 832.516 319.799C832.164 320.055 831.988 320.386 831.988 320.791C831.988 321.111 832.084 321.362 832.276 321.543C832.479 321.725 832.74 321.869 833.06 321.975C833.391 322.071 833.748 322.151 834.132 322.215C834.527 322.279 834.916 322.359 835.3 322.455C835.695 322.541 836.052 322.663 836.372 322.823C836.703 322.973 836.964 323.191 837.156 323.479C837.359 323.757 837.46 324.125 837.46 324.583C837.46 325.074 837.322 325.501 837.044 325.863C836.778 326.215 836.383 326.493 835.86 326.695C835.348 326.887 834.724 326.983 833.988 326.983ZM842.969 326.983C842.158 326.983 841.428 326.802 840.777 326.439C840.137 326.066 839.63 325.559 839.257 324.919C838.884 324.269 838.697 323.527 838.697 322.695C838.697 321.853 838.884 321.111 839.257 320.471C839.63 319.831 840.137 319.33 840.777 318.967C841.417 318.605 842.148 318.423 842.969 318.423C843.801 318.423 844.537 318.605 845.177 318.967C845.828 319.33 846.334 319.831 846.697 320.471C847.07 321.111 847.257 321.853 847.257 322.695C847.257 323.527 847.07 324.269 846.697 324.919C846.334 325.559 845.828 326.066 845.177 326.439C844.526 326.802 843.79 326.983 842.969 326.983ZM842.969 325.975C843.577 325.975 844.116 325.842 844.585 325.575C845.054 325.298 845.422 324.914 845.689 324.423C845.966 323.922 846.105 323.346 846.105 322.695C846.105 322.034 845.966 321.458 845.689 320.967C845.422 320.477 845.054 320.098 844.585 319.831C844.116 319.554 843.582 319.415 842.985 319.415C842.388 319.415 841.854 319.554 841.385 319.831C840.916 320.098 840.542 320.477 840.265 320.967C839.988 321.458 839.849 322.034 839.849 322.695C839.849 323.346 839.988 323.922 840.265 324.423C840.542 324.914 840.916 325.298 841.385 325.575C841.854 325.842 842.382 325.975 842.969 325.975ZM853.864 318.423C854.547 318.423 855.144 318.557 855.656 318.823C856.179 319.079 856.584 319.474 856.872 320.007C857.171 320.541 857.32 321.213 857.32 322.023V326.903H856.184V322.135C856.184 321.25 855.96 320.583 855.512 320.135C855.075 319.677 854.456 319.447 853.656 319.447C853.059 319.447 852.536 319.57 852.088 319.815C851.651 320.05 851.31 320.397 851.064 320.855C850.83 321.303 850.712 321.847 850.712 322.487V326.903H849.576V318.503H850.664V320.807L850.488 320.375C850.755 319.767 851.182 319.293 851.768 318.951C852.355 318.599 853.054 318.423 853.864 318.423ZM865.653 326.903V325.047L865.605 324.743V321.639C865.605 320.925 865.402 320.375 864.997 319.991C864.602 319.607 864.01 319.415 863.221 319.415C862.677 319.415 862.159 319.506 861.669 319.687C861.178 319.869 860.762 320.109 860.421 320.407L859.909 319.559C860.335 319.197 860.847 318.919 861.445 318.727C862.042 318.525 862.671 318.423 863.333 318.423C864.421 318.423 865.258 318.695 865.845 319.239C866.442 319.773 866.741 320.589 866.741 321.687V326.903H865.653ZM862.757 326.983C862.127 326.983 861.578 326.882 861.109 326.679C860.65 326.466 860.298 326.178 860.053 325.815C859.807 325.442 859.685 325.015 859.685 324.535C859.685 324.098 859.786 323.703 859.989 323.351C860.202 322.989 860.543 322.701 861.013 322.487C861.493 322.263 862.133 322.151 862.933 322.151H865.829V322.999H862.965C862.154 322.999 861.589 323.143 861.269 323.431C860.959 323.719 860.805 324.077 860.805 324.503C860.805 324.983 860.991 325.367 861.365 325.655C861.738 325.943 862.261 326.087 862.933 326.087C863.573 326.087 864.122 325.943 864.581 325.655C865.05 325.357 865.391 324.93 865.605 324.375L865.861 325.159C865.647 325.714 865.274 326.157 864.741 326.487C864.218 326.818 863.557 326.983 862.757 326.983ZM869.826 326.903V315.031H870.962V326.903H869.826ZM766.738 346.903V335.703H770.93C771.879 335.703 772.695 335.858 773.378 336.167C774.061 336.466 774.583 336.903 774.946 337.479C775.319 338.045 775.506 338.733 775.506 339.543C775.506 340.333 775.319 341.015 774.946 341.591C774.583 342.157 774.061 342.594 773.378 342.903C772.695 343.202 771.879 343.351 770.93 343.351H767.394L767.922 342.807V346.903H766.738ZM774.386 346.903L771.506 342.839H772.786L775.682 346.903H774.386ZM767.922 342.903L767.394 342.343H770.898C772.018 342.343 772.866 342.098 773.442 341.607C774.029 341.117 774.322 340.429 774.322 339.543C774.322 338.647 774.029 337.954 773.442 337.463C772.866 336.973 772.018 336.727 770.898 336.727H767.394L767.922 336.167V342.903ZM781.629 346.983C780.754 346.983 779.986 346.802 779.325 346.439C778.663 346.066 778.146 345.559 777.773 344.919C777.399 344.269 777.213 343.527 777.213 342.695C777.213 341.863 777.389 341.127 777.741 340.487C778.103 339.847 778.594 339.346 779.213 338.983C779.842 338.61 780.546 338.423 781.325 338.423C782.114 338.423 782.813 338.605 783.421 338.967C784.039 339.319 784.525 339.821 784.877 340.471C785.229 341.111 785.405 341.853 785.405 342.695C785.405 342.749 785.399 342.807 785.389 342.871C785.389 342.925 785.389 342.983 785.389 343.047H778.077V342.199H784.781L784.333 342.535C784.333 341.927 784.199 341.389 783.933 340.919C783.677 340.439 783.325 340.066 782.877 339.799C782.429 339.533 781.911 339.399 781.325 339.399C780.749 339.399 780.231 339.533 779.773 339.799C779.314 340.066 778.957 340.439 778.701 340.919C778.445 341.399 778.317 341.949 778.317 342.567V342.743C778.317 343.383 778.455 343.949 778.733 344.439C779.021 344.919 779.415 345.298 779.917 345.575C780.429 345.842 781.01 345.975 781.661 345.975C782.173 345.975 782.647 345.885 783.085 345.703C783.533 345.522 783.917 345.245 784.237 344.871L784.877 345.607C784.503 346.055 784.034 346.397 783.469 346.631C782.914 346.866 782.301 346.983 781.629 346.983ZM787.717 346.903V335.031H788.853V346.903H787.717ZM797.278 346.903V345.047L797.23 344.743V341.639C797.23 340.925 797.027 340.375 796.622 339.991C796.227 339.607 795.635 339.415 794.846 339.415C794.302 339.415 793.784 339.506 793.294 339.687C792.803 339.869 792.387 340.109 792.046 340.407L791.534 339.559C791.96 339.197 792.472 338.919 793.07 338.727C793.667 338.525 794.296 338.423 794.958 338.423C796.046 338.423 796.883 338.695 797.47 339.239C798.067 339.773 798.366 340.589 798.366 341.687V346.903H797.278ZM794.382 346.983C793.752 346.983 793.203 346.882 792.734 346.679C792.275 346.466 791.923 346.178 791.678 345.815C791.432 345.442 791.31 345.015 791.31 344.535C791.31 344.098 791.411 343.703 791.614 343.351C791.827 342.989 792.168 342.701 792.638 342.487C793.118 342.263 793.758 342.151 794.558 342.151H797.454V342.999H794.59C793.779 342.999 793.214 343.143 792.894 343.431C792.584 343.719 792.43 344.077 792.43 344.503C792.43 344.983 792.616 345.367 792.99 345.655C793.363 345.943 793.886 346.087 794.558 346.087C795.198 346.087 795.747 345.943 796.206 345.655C796.675 345.357 797.016 344.93 797.23 344.375L797.486 345.159C797.272 345.714 796.899 346.157 796.366 346.487C795.843 346.818 795.182 346.983 794.382 346.983ZM804.107 346.983C803.318 346.983 802.71 346.77 802.283 346.343C801.857 345.917 801.643 345.314 801.643 344.535V336.647H802.779V344.471C802.779 344.962 802.902 345.341 803.147 345.607C803.403 345.874 803.766 346.007 804.235 346.007C804.737 346.007 805.153 345.863 805.483 345.575L805.883 346.391C805.659 346.594 805.387 346.743 805.067 346.839C804.758 346.935 804.438 346.983 804.107 346.983ZM800.139 339.447V338.503H805.339V339.447H800.139ZM807.951 346.903V338.503H809.087V346.903H807.951ZM808.527 336.647C808.293 336.647 808.095 336.567 807.935 336.407C807.775 336.247 807.695 336.055 807.695 335.831C807.695 335.607 807.775 335.421 807.935 335.271C808.095 335.111 808.293 335.031 808.527 335.031C808.762 335.031 808.959 335.106 809.119 335.255C809.279 335.405 809.359 335.591 809.359 335.815C809.359 336.05 809.279 336.247 809.119 336.407C808.97 336.567 808.773 336.647 808.527 336.647ZM815.672 346.983C814.861 346.983 814.131 346.802 813.48 346.439C812.84 346.066 812.333 345.559 811.96 344.919C811.587 344.269 811.4 343.527 811.4 342.695C811.4 341.853 811.587 341.111 811.96 340.471C812.333 339.831 812.84 339.33 813.48 338.967C814.12 338.605 814.851 338.423 815.672 338.423C816.504 338.423 817.24 338.605 817.88 338.967C818.531 339.33 819.037 339.831 819.4 340.471C819.773 341.111 819.96 341.853 819.96 342.695C819.96 343.527 819.773 344.269 819.4 344.919C819.037 345.559 818.531 346.066 817.88 346.439C817.229 346.802 816.493 346.983 815.672 346.983ZM815.672 345.975C816.28 345.975 816.819 345.842 817.288 345.575C817.757 345.298 818.125 344.914 818.392 344.423C818.669 343.922 818.808 343.346 818.808 342.695C818.808 342.034 818.669 341.458 818.392 340.967C818.125 340.477 817.757 340.098 817.288 339.831C816.819 339.554 816.285 339.415 815.688 339.415C815.091 339.415 814.557 339.554 814.088 339.831C813.619 340.098 813.245 340.477 812.968 340.967C812.691 341.458 812.552 342.034 812.552 342.695C812.552 343.346 812.691 343.922 812.968 344.423C813.245 344.914 813.619 345.298 814.088 345.575C814.557 345.842 815.085 345.975 815.672 345.975ZM826.567 338.423C827.25 338.423 827.847 338.557 828.359 338.823C828.882 339.079 829.287 339.474 829.575 340.007C829.874 340.541 830.023 341.213 830.023 342.023V346.903H828.887V342.135C828.887 341.25 828.663 340.583 828.215 340.135C827.778 339.677 827.159 339.447 826.359 339.447C825.762 339.447 825.239 339.57 824.791 339.815C824.354 340.05 824.013 340.397 823.767 340.855C823.533 341.303 823.415 341.847 823.415 342.487V346.903H822.279V338.503H823.367V340.807L823.191 340.375C823.458 339.767 823.885 339.293 824.471 338.951C825.058 338.599 825.757 338.423 826.567 338.423ZM835.348 346.983C834.654 346.983 833.998 346.887 833.38 346.695C832.761 346.493 832.276 346.242 831.924 345.943L832.436 345.047C832.777 345.303 833.214 345.527 833.748 345.719C834.281 345.901 834.841 345.991 835.428 345.991C836.228 345.991 836.804 345.869 837.156 345.623C837.508 345.367 837.684 345.031 837.684 344.615C837.684 344.306 837.582 344.066 837.38 343.895C837.188 343.714 836.932 343.581 836.612 343.495C836.292 343.399 835.934 343.319 835.54 343.255C835.145 343.191 834.75 343.117 834.356 343.031C833.972 342.946 833.62 342.823 833.3 342.663C832.98 342.493 832.718 342.263 832.516 341.975C832.324 341.687 832.228 341.303 832.228 340.823C832.228 340.365 832.356 339.954 832.612 339.591C832.868 339.229 833.241 338.946 833.732 338.743C834.233 338.53 834.841 338.423 835.556 338.423C836.1 338.423 836.644 338.498 837.188 338.647C837.732 338.786 838.18 338.973 838.532 339.207L838.036 340.119C837.662 339.863 837.262 339.682 836.836 339.575C836.409 339.458 835.982 339.399 835.556 339.399C834.798 339.399 834.238 339.533 833.876 339.799C833.524 340.055 833.348 340.386 833.348 340.791C833.348 341.111 833.444 341.362 833.636 341.543C833.838 341.725 834.1 341.869 834.42 341.975C834.75 342.071 835.108 342.151 835.492 342.215C835.886 342.279 836.276 342.359 836.66 342.455C837.054 342.541 837.412 342.663 837.732 342.823C838.062 342.973 838.324 343.191 838.516 343.479C838.718 343.757 838.82 344.125 838.82 344.583C838.82 345.074 838.681 345.501 838.404 345.863C838.137 346.215 837.742 346.493 837.22 346.695C836.708 346.887 836.084 346.983 835.348 346.983ZM845.192 338.423C845.875 338.423 846.472 338.557 846.984 338.823C847.507 339.079 847.912 339.474 848.2 340.007C848.499 340.541 848.648 341.213 848.648 342.023V346.903H847.512V342.135C847.512 341.25 847.288 340.583 846.84 340.135C846.403 339.677 845.784 339.447 844.984 339.447C844.387 339.447 843.864 339.57 843.416 339.815C842.979 340.05 842.638 340.397 842.392 340.855C842.158 341.303 842.04 341.847 842.04 342.487V346.903H840.904V335.031H842.04V340.807L841.816 340.375C842.083 339.767 842.51 339.293 843.096 338.951C843.683 338.599 844.382 338.423 845.192 338.423ZM851.717 346.903V338.503H852.853V346.903H851.717ZM852.293 336.647C852.058 336.647 851.861 336.567 851.701 336.407C851.541 336.247 851.461 336.055 851.461 335.831C851.461 335.607 851.541 335.421 851.701 335.271C851.861 335.111 852.058 335.031 852.293 335.031C852.527 335.031 852.725 335.106 852.885 335.255C853.045 335.405 853.125 335.591 853.125 335.815C853.125 336.05 853.045 336.247 852.885 336.407C852.735 336.567 852.538 336.647 852.293 336.647ZM860.35 346.983C859.624 346.983 858.968 346.818 858.382 346.487C857.795 346.146 857.326 345.661 856.974 345.031C856.632 344.391 856.462 343.613 856.462 342.695C856.462 341.778 856.632 341.005 856.974 340.375C857.315 339.735 857.779 339.25 858.366 338.919C858.952 338.589 859.614 338.423 860.35 338.423C861.15 338.423 861.864 338.605 862.494 338.967C863.134 339.319 863.635 339.821 863.998 340.471C864.36 341.111 864.542 341.853 864.542 342.695C864.542 343.549 864.36 344.295 863.998 344.935C863.635 345.575 863.134 346.077 862.494 346.439C861.864 346.802 861.15 346.983 860.35 346.983ZM856.014 350.007V338.503H857.102V341.031L856.99 342.711L857.15 344.407V350.007H856.014ZM860.27 345.975C860.867 345.975 861.4 345.842 861.87 345.575C862.339 345.298 862.712 344.914 862.99 344.423C863.267 343.922 863.406 343.346 863.406 342.695C863.406 342.045 863.267 341.474 862.99 340.983C862.712 340.493 862.339 340.109 861.87 339.831C861.4 339.554 860.867 339.415 860.27 339.415C859.672 339.415 859.134 339.554 858.654 339.831C858.184 340.109 857.811 340.493 857.534 340.983C857.267 341.474 857.134 342.045 857.134 342.695C857.134 343.346 857.267 343.922 857.534 344.423C857.811 344.914 858.184 345.298 858.654 345.575C859.134 345.842 859.672 345.975 860.27 345.975ZM869.113 346.983C868.42 346.983 867.764 346.887 867.145 346.695C866.527 346.493 866.041 346.242 865.689 345.943L866.201 345.047C866.543 345.303 866.98 345.527 867.513 345.719C868.047 345.901 868.607 345.991 869.193 345.991C869.993 345.991 870.569 345.869 870.921 345.623C871.273 345.367 871.449 345.031 871.449 344.615C871.449 344.306 871.348 344.066 871.145 343.895C870.953 343.714 870.697 343.581 870.377 343.495C870.057 343.399 869.7 343.319 869.305 343.255C868.911 343.191 868.516 343.117 868.121 343.031C867.737 342.946 867.385 342.823 867.065 342.663C866.745 342.493 866.484 342.263 866.281 341.975C866.089 341.687 865.993 341.303 865.993 340.823C865.993 340.365 866.121 339.954 866.377 339.591C866.633 339.229 867.007 338.946 867.497 338.743C867.999 338.53 868.607 338.423 869.321 338.423C869.865 338.423 870.409 338.498 870.953 338.647C871.497 338.786 871.945 338.973 872.297 339.207L871.801 340.119C871.428 339.863 871.028 339.682 870.601 339.575C870.175 339.458 869.748 339.399 869.321 339.399C868.564 339.399 868.004 339.533 867.641 339.799C867.289 340.055 867.113 340.386 867.113 340.791C867.113 341.111 867.209 341.362 867.401 341.543C867.604 341.725 867.865 341.869 868.185 341.975C868.516 342.071 868.873 342.151 869.257 342.215C869.652 342.279 870.041 342.359 870.425 342.455C870.82 342.541 871.177 342.663 871.497 342.823C871.828 342.973 872.089 343.191 872.281 343.479C872.484 343.757 872.585 344.125 872.585 344.583C872.585 345.074 872.447 345.501 872.169 345.863C871.903 346.215 871.508 346.493 870.985 346.695C870.473 346.887 869.849 346.983 869.113 346.983Z" fill="black"/>
</svg>
