<svg width="24" height="24" viewBox="0 0 24 24" fill="none" xmlns="http://www.w3.org/2000/svg">
<path d="M17.9287 19.6329H20.0667C20.2547 19.6358 20.4407 19.5932 20.6087 19.5086C20.7767 19.4241 20.9218 19.3001 21.0314 19.1473C21.1411 18.9945 21.2121 18.8174 21.2385 18.6312C21.2648 18.4449 21.2457 18.2551 21.1827 18.0779C20.6375 16.911 19.7744 15.9215 18.6925 15.2228C17.6105 14.5241 16.3535 14.1446 15.0657 14.1279M15.0657 11.3689C15.5469 11.369 16.0235 11.2743 16.4681 11.0903C16.9128 10.9062 17.3168 10.6363 17.6572 10.2961C17.9975 9.95582 18.2675 9.55186 18.4517 9.10726C18.6359 8.66266 18.7307 8.18612 18.7307 7.70487C18.732 7.22279 18.6382 6.74518 18.4545 6.29942C18.2709 5.85366 18.0012 5.44852 17.6607 5.10721C17.3202 4.76591 16.9158 4.49515 16.4704 4.31045C16.0251 4.12575 15.5478 4.03074 15.0657 4.03087M9.34067 11.4839C10.4424 11.4812 11.4981 11.0416 12.2761 10.2616C13.0541 9.48147 13.4909 8.42462 13.4907 7.32288C13.4907 6.22196 13.0533 5.16614 12.2749 4.38767C11.4964 3.60921 10.4406 3.17188 9.33967 3.17188C8.23876 3.17188 7.18294 3.60921 6.40447 4.38767C5.62601 5.16614 5.18867 6.22196 5.18867 7.32288C5.18867 8.42462 5.62572 9.48137 6.40392 10.2613C7.18213 11.0412 8.23793 11.4805 9.33967 11.4829M14.0257 20.8259C14.3779 20.8254 14.7231 20.7274 15.0231 20.5428C15.3231 20.3582 15.5661 20.0941 15.7253 19.7799C15.8844 19.4657 15.9534 19.1135 15.9247 18.7624C15.896 18.4114 15.7707 18.0751 15.5627 17.7909C14.8338 16.8234 13.8955 16.0333 12.818 15.4798C11.7404 14.9263 10.5517 14.6238 9.34067 14.5949C8.12959 14.6239 6.94077 14.9266 5.86325 15.4802C4.78573 16.0339 3.84745 16.8242 3.11867 17.7919C2.91133 18.0761 2.78657 18.4121 2.75818 18.7628C2.72979 19.1135 2.79886 19.4652 2.95778 19.7791C3.1167 20.093 3.35927 20.3569 3.65872 20.5416C3.95817 20.7263 4.30284 20.8247 4.65467 20.8259H14.0257Z" stroke="black" stroke-width="1.8" stroke-linecap="round" stroke-linejoin="round"/>
</svg>
