<svg width="18" height="17" viewBox="0 0 18 17" fill="none" xmlns="http://www.w3.org/2000/svg">
<path d="M7.482 3.64342H10.5177C10.5177 3.24085 10.3578 2.85478 10.0731 2.57013C9.78849 2.28547 9.40242 2.12556 8.99986 2.12556C8.5973 2.12556 8.21123 2.28547 7.92657 2.57013C7.64192 2.85478 7.482 3.24085 7.482 3.64342ZM6.57129 3.64342C6.57129 2.99932 6.82716 2.3816 7.2826 1.92616C7.73805 1.47071 8.35576 1.21484 8.99986 1.21484C9.64396 1.21484 10.2617 1.47071 10.7171 1.92616C11.1726 2.3816 11.4284 2.99932 11.4284 3.64342H15.2231C15.3438 3.64342 15.4597 3.69139 15.5451 3.77679C15.6305 3.86218 15.6784 3.978 15.6784 4.09877C15.6784 4.21954 15.6305 4.33536 15.5451 4.42076C15.4597 4.50615 15.3438 4.55413 15.2231 4.55413H14.4277L13.6888 13.4202C13.6351 14.0652 13.3409 14.6664 12.8646 15.1047C12.3884 15.543 11.7648 15.7862 11.1176 15.7863H6.88215C6.23493 15.7862 5.61136 15.543 5.1351 15.1047C4.65883 14.6664 4.36465 14.0652 4.3109 13.4202L3.572 4.55413H2.77665C2.65588 4.55413 2.54006 4.50615 2.45466 4.42076C2.36926 4.33536 2.32129 4.21954 2.32129 4.09877C2.32129 3.978 2.36926 3.86218 2.45466 3.77679C2.54006 3.69139 2.65588 3.64342 2.77665 3.64342H6.57129ZM5.21857 13.3443C5.2533 13.7617 5.4436 14.1508 5.75174 14.4344C6.05987 14.718 6.46335 14.8755 6.88215 14.8756H11.1176C11.5364 14.8755 11.9398 14.718 12.248 14.4344C12.5561 14.1508 12.7464 13.7617 12.7811 13.3443L13.5146 4.55413H4.48575L5.21857 13.3443ZM7.63379 6.67913C7.75456 6.67913 7.87038 6.7271 7.95578 6.8125C8.04117 6.8979 8.08915 7.01372 8.08915 7.13449V12.2952C8.08915 12.416 8.04117 12.5318 7.95578 12.6172C7.87038 12.7026 7.75456 12.7506 7.63379 12.7506C7.51302 12.7506 7.3972 12.7026 7.3118 12.6172C7.22641 12.5318 7.17843 12.416 7.17843 12.2952V7.13449C7.17843 7.01372 7.22641 6.8979 7.3118 6.8125C7.3972 6.7271 7.51302 6.67913 7.63379 6.67913ZM10.8213 7.13449C10.8213 7.01372 10.7733 6.8979 10.6879 6.8125C10.6025 6.7271 10.4867 6.67913 10.3659 6.67913C10.2452 6.67913 10.1293 6.7271 10.0439 6.8125C9.95855 6.8979 9.91057 7.01372 9.91057 7.13449V12.2952C9.91057 12.416 9.95855 12.5318 10.0439 12.6172C10.1293 12.7026 10.2452 12.7506 10.3659 12.7506C10.4867 12.7506 10.6025 12.7026 10.6879 12.6172C10.7733 12.5318 10.8213 12.416 10.8213 12.2952V7.13449Z" fill="#4126A8"/>
</svg>
