<svg width="24" height="25" viewBox="0 0 24 25" fill="none" xmlns="http://www.w3.org/2000/svg">
<path d="M7 17.5114L11.413 17.4964L21.045 7.95644C21.423 7.57844 21.631 7.07644 21.631 6.54244C21.631 6.00844 21.423 5.50644 21.045 5.12844L19.459 3.54244C18.703 2.78644 17.384 2.79044 16.634 3.53944L7 13.0814V17.5114ZM18.045 4.95644L19.634 6.53944L18.037 8.12144L16.451 6.53644L18.045 4.95644ZM9 13.9154L15.03 7.94244L16.616 9.52844L10.587 15.4994L9 15.5044V13.9154Z" fill="black"/>
<path d="M5 21.5H19C20.103 21.5 21 20.603 21 19.5V10.832L19 12.832V19.5H8.158C8.132 19.5 8.105 19.51 8.079 19.51C8.046 19.51 8.013 19.501 7.979 19.5H5V5.5H11.847L13.847 3.5H5C3.897 3.5 3 4.397 3 5.5V19.5C3 20.603 3.897 21.5 5 21.5Z" fill="black"/>
</svg>
