<svg width="18" height="18" viewBox="0 0 18 18" fill="none" xmlns="http://www.w3.org/2000/svg">
<path d="M9 3C11.0903 3 12.9472 3.94275 14.2695 5.10975C14.9332 5.6955 15.48 6.35325 15.8655 7.008C16.2442 7.65075 16.5 8.3475 16.5 9C16.5 9.6525 16.245 10.3493 15.8655 10.992C15.48 11.6468 14.9332 12.3045 14.2695 12.8903C12.9472 14.0573 11.0895 15 9 15C6.90975 15 5.05275 14.0573 3.7305 12.8903C3.06675 12.3045 2.52 11.6468 2.1345 10.992C1.755 10.3493 1.5 9.6525 1.5 9C1.5 8.3475 1.755 7.65075 2.1345 7.008C2.52 6.35325 3.06675 5.6955 3.7305 5.10975C5.05275 3.94275 6.9105 3 9 3ZM9 4.5C7.362 4.5 5.844 5.24475 4.7235 6.234C4.1655 6.726 3.7245 7.26375 3.42675 7.76925C3.12225 8.28675 3 8.715 3 9C3 9.285 3.12225 9.71325 3.42675 10.2308C3.7245 10.7362 4.1655 11.2732 4.7235 11.766C5.844 12.7552 7.362 13.5 9 13.5C10.638 13.5 12.156 12.7552 13.2765 11.766C13.8345 11.2732 14.2755 10.7362 14.5732 10.2308C14.8777 9.71325 15 9.285 15 9C15 8.715 14.8777 8.28675 14.5732 7.76925C14.2755 7.26375 13.8345 6.72675 13.2765 6.234C12.156 5.24475 10.638 4.5 9 4.5ZM9 6.75C9.066 6.75 9.13125 6.75275 9.19575 6.75825C9.03291 7.04389 8.96844 7.37512 9.01225 7.70098C9.05606 8.02685 9.20572 8.32929 9.43822 8.56178C9.67071 8.79428 9.97315 8.94394 10.299 8.98775C10.6249 9.03156 10.9561 8.96709 11.2418 8.80425C11.2812 9.25588 11.1833 9.70888 10.9609 10.1039C10.7384 10.4989 10.4019 10.8176 9.99526 11.018C9.58865 11.2185 9.13096 11.2915 8.68217 11.2274C8.23338 11.1633 7.81441 10.9651 7.48018 10.6589C7.14594 10.3526 6.91202 9.95247 6.80907 9.51096C6.70612 9.06946 6.73893 8.60716 6.90322 8.18463C7.06751 7.7621 7.3556 7.39905 7.72975 7.14305C8.1039 6.88706 8.54665 6.75006 9 6.75Z" fill="#4126A8"/>
</svg>
