<svg width="18" height="18" viewBox="0 0 18 18" fill="none" xmlns="http://www.w3.org/2000/svg">
<path d="M10.4063 14.1188C9.9427 14.2066 9.47186 14.2506 9.00002 14.25C5.75222 14.25 2.98697 12.1859 1.94343 9.2981C1.87383 9.1055 1.87389 8.89457 1.94355 8.70199C2.19942 7.99459 2.56047 7.32913 3.01502 6.72825M10.59 10.59L8.1158 8.11636C7.72519 7.72585 7.72673 7.06438 8.24727 6.87969C8.48662 6.79477 8.74084 6.75018 8.99965 6.75018C9.59644 6.75018 10.1688 6.98726 10.5908 7.40925C11.0128 7.83124 11.2498 8.40359 11.2498 9.00037C11.2498 9.25918 11.2053 9.51338 11.1203 9.75272C10.9357 10.2733 10.9075 10.9081 11.2981 11.2986L13.059 13.059M7.41002 7.41L4.94252 4.9425M4.94252 4.9425L2.25002 2.25M4.94252 4.9425C6.15174 4.16206 7.56083 3.74792 9.00002 3.75C12.2477 3.75 15.0128 5.81395 16.0565 8.70149C16.1262 8.89434 16.126 9.10557 16.0561 9.29836C15.6373 10.4537 14.9435 11.4844 14.0403 12.3043C13.5684 12.7328 13.484 13.4839 13.9347 13.9347L15.75 15.75" stroke="#4126A8" stroke-width="1.5" stroke-linecap="round" stroke-linejoin="round"/>
</svg>
