<svg width="18" height="16" viewBox="0 0 18 16" fill="none" xmlns="http://www.w3.org/2000/svg">
<path d="M4.33333 11.4933H13.6667V6.85334C13.6667 6.00889 13.4533 5.22223 13.0267 4.49334C12.6178 3.78223 12.0622 3.21778 11.36 2.80001C10.6311 2.38223 9.84444 2.17334 9 2.17334C8.15556 2.17334 7.36889 2.38223 6.64 2.80001C5.93778 3.21778 5.38222 3.78223 4.97333 4.49334C4.54667 5.22223 4.33333 6.00889 4.33333 6.85334V11.4933ZM9 0.826673C10.0844 0.826673 11.0933 1.10223 12.0267 1.65334C12.9333 2.18667 13.6533 2.90667 14.1867 3.81334C14.7289 4.74667 15 5.76001 15 6.85334V12.8267H3V6.85334C3 5.76001 3.27111 4.74667 3.81333 3.81334C4.34667 2.90667 5.06667 2.18667 5.97333 1.65334C6.90667 1.11112 7.91556 0.840006 9 0.840006V0.826673ZM7.33333 13.4933H10.6667C10.6667 13.7956 10.5911 14.0756 10.44 14.3333C10.2889 14.5911 10.0867 14.7956 9.83333 14.9467C9.58 15.0978 9.30222 15.1733 9 15.1733C8.69778 15.1733 8.42 15.0978 8.16667 14.9467C7.91333 14.7956 7.71111 14.5911 7.56 14.3333C7.40889 14.0756 7.33333 13.8 7.33333 13.5067V13.4933Z" fill="#9CA3AF"/>
</svg>
