<svg width="52" height="52" viewBox="0 0 52 52" fill="none" xmlns="http://www.w3.org/2000/svg">
<path d="M39.1619 3.36719L48.2034 12.7922V48.6332H14.4277V48.7502H48.3187V12.9108L39.1619 3.36719Z" fill="#909090"/>
<path d="M39.0499 3.25H14.3125V48.633H48.2035V12.7936L39.0499 3.25Z" fill="#F4F4F4"/>
<path d="M14.0634 5.6875H3.67969V16.7814H36.3422V5.6875H14.0634Z" fill="#7A7B7C"/>
<path d="M36.5177 16.5922H3.89258V5.49023H36.5177V16.5922Z" fill="#DD2025"/>
<path d="M14.7098 7.36832H12.5859V15.1683H14.2564V12.5374L14.6253 12.5586C14.9839 12.5536 15.3391 12.4894 15.6767 12.3684C15.9735 12.2677 16.2462 12.1067 16.4778 11.8956C16.7153 11.6964 16.9019 11.4435 17.0222 11.1578C17.1867 10.6845 17.245 10.1807 17.1928 9.68232C17.1835 9.32621 17.1211 8.97348 17.0076 8.63582C16.9052 8.39176 16.7531 8.17175 16.5609 7.98987C16.3686 7.80799 16.1405 7.66824 15.8912 7.57957C15.6762 7.49996 15.4534 7.44331 15.2266 7.41057C15.0552 7.38266 14.8818 7.36853 14.7082 7.36832M14.4011 11.0961H14.2564V8.69107H14.5701C14.7085 8.68109 14.8474 8.70234 14.9765 8.75325C15.1056 8.80416 15.2216 8.88343 15.3159 8.9852C15.5115 9.24684 15.6159 9.56533 15.6133 9.89195C15.6133 10.2917 15.6133 10.6541 15.2526 10.9092C14.9927 11.0523 14.6969 11.1183 14.4011 11.0961ZM20.3664 7.3472C20.1861 7.3472 20.0106 7.3602 19.8871 7.36507L19.5003 7.37482H18.2328V15.1748H19.7246C20.2946 15.1895 20.862 15.0929 21.3951 14.8904C21.8243 14.721 22.2041 14.4466 22.5001 14.0926C22.79 13.7369 22.9971 13.3212 23.1062 12.8754C23.2344 12.3716 23.2966 11.8532 23.2914 11.3333C23.3232 10.7193 23.2757 10.1038 23.1501 9.50195C23.0298 9.05944 22.8071 8.65142 22.5001 8.31082C22.2592 8.0354 21.963 7.81391 21.6307 7.66082C21.346 7.52887 21.0465 7.43175 20.7386 7.37157C20.6161 7.3515 20.4921 7.34226 20.3681 7.34395M20.0723 13.7416H19.9098V8.76257H19.9309C20.266 8.72383 20.605 8.78429 20.9059 8.93645C21.1264 9.11248 21.306 9.33425 21.4324 9.58645C21.5689 9.85187 21.6475 10.1432 21.6632 10.4412C21.6778 10.7987 21.6632 11.0912 21.6632 11.3333C21.6692 11.6122 21.6513 11.8911 21.6096 12.1669C21.5584 12.4498 21.4659 12.7236 21.3349 12.9794C21.187 13.2181 20.9849 13.4185 20.7451 13.5644C20.5447 13.6945 20.3072 13.755 20.0691 13.7367M28.3241 7.37482H24.3753V15.1748H26.0458V12.0808H28.1583V10.6313H26.0458V8.82432H28.3208V7.37482" fill="#464648"/>
<path d="M35.3951 32.9149C35.3951 32.9149 40.5756 31.9757 40.5756 33.7453C40.5756 35.5149 37.3662 34.7951 35.3951 32.9149ZM31.565 33.0498C30.7418 33.2312 29.9396 33.4975 29.1713 33.8444L29.8213 32.3819C30.4713 30.9194 31.1457 28.9256 31.1457 28.9256C31.9194 30.2323 32.822 31.4582 33.84 32.5851C33.0736 32.6992 32.3141 32.8555 31.565 33.0531V33.0498ZM29.5142 22.4873C29.5142 20.9452 30.0131 20.5243 30.4015 20.5243C30.7898 20.5243 31.227 20.7112 31.2416 22.0502C31.1149 23.3966 30.833 24.7238 30.4015 26.0054C29.8084 24.9301 29.5023 23.7202 29.5126 22.4922L29.5142 22.4873ZM21.9596 39.5758C20.3703 38.6252 25.2925 35.6986 26.1846 35.6043C26.1797 35.6059 23.6236 40.5703 21.9596 39.5758ZM42.0885 33.9549C42.0722 33.7924 41.926 31.9936 38.7247 32.0699C37.3903 32.0465 36.0565 32.1406 34.7386 32.3511C33.4612 31.0653 32.3616 29.6142 31.4691 28.0367C32.031 26.4105 32.3715 24.7162 32.4815 22.9992C32.4343 21.0492 31.968 19.9312 30.473 19.9474C28.978 19.9637 28.7602 21.2718 28.9568 23.2186C29.1493 24.5268 29.5126 25.8041 30.0375 27.0178C30.0375 27.0178 29.3468 29.1677 28.4336 31.3062C27.5203 33.4447 26.8963 34.5659 26.8963 34.5659C25.308 35.0823 23.813 35.8505 22.4682 36.8409C21.1292 38.0873 20.5848 39.0444 21.2901 40.0016C21.8978 40.8271 24.025 41.0139 25.9262 38.5228C26.9347 37.2349 27.8575 35.8821 28.6887 34.4733C28.6887 34.4733 31.5877 33.6787 32.4896 33.4609C33.3915 33.2432 34.4818 33.0709 34.4818 33.0709C34.4818 33.0709 37.129 35.7343 39.6818 35.6401C42.2347 35.5458 42.1112 34.1142 42.095 33.9582" fill="#DD2025"/>
<path d="M38.9258 3.375V12.9186H48.0794L38.9258 3.375Z" fill="#909090"/>
<path d="M39.0508 3.25V12.7936H48.2044L39.0508 3.25Z" fill="#F4F4F4"/>
<path d="M14.5848 7.24332H12.4609V15.0433H14.1379V12.4141L14.5084 12.4352C14.867 12.4303 15.2222 12.366 15.5598 12.2451C15.8566 12.1443 16.1293 11.9833 16.3609 11.7722C16.5967 11.5725 16.7816 11.3196 16.9004 11.0344C17.065 10.5611 17.1232 10.0573 17.0711 9.55895C17.0618 9.20283 16.9994 8.8501 16.8858 8.51245C16.7835 8.26839 16.6313 8.04837 16.4391 7.86649C16.2469 7.68461 16.0188 7.54486 15.7694 7.4562C15.5535 7.37581 15.3296 7.31861 15.1016 7.28557C14.9302 7.25766 14.7568 7.24353 14.5832 7.24332M14.2761 10.9711H14.1314V8.56607H14.4467C14.5851 8.55609 14.724 8.57734 14.8531 8.62825C14.9822 8.67916 15.0982 8.75843 15.1926 8.8602C15.3881 9.12185 15.4925 9.44033 15.4899 9.76695C15.4899 10.1667 15.4899 10.5291 15.1292 10.7842C14.8694 10.9273 14.5735 10.9917 14.2777 10.9694M20.2414 7.2222C20.0611 7.2222 19.8856 7.2352 19.7621 7.24007L19.3802 7.24982H18.1127V15.0498H19.6044C20.1745 15.0645 20.7419 14.9679 21.2749 14.7654C21.7041 14.596 22.084 14.3216 22.3799 13.9676C22.6699 13.6119 22.877 13.1962 22.9861 12.7504C23.1142 12.2466 23.1765 11.7282 23.1713 11.2083C23.2031 10.5943 23.1556 9.97879 23.0299 9.37695C22.9096 8.93444 22.687 8.52642 22.3799 8.18582C22.1391 7.9104 21.8429 7.68891 21.5106 7.53582C21.2259 7.40387 20.9264 7.30675 20.6184 7.24657C20.496 7.2265 20.372 7.21726 20.2479 7.21895M19.9522 13.6166H19.7897V8.63757H19.8108C20.1458 8.59883 20.4848 8.65929 20.7858 8.81145C21.0063 8.98748 21.1859 9.20925 21.3123 9.46145C21.4487 9.72687 21.5274 10.0182 21.5431 10.3162C21.5577 10.6737 21.5431 10.9662 21.5431 11.2083C21.5491 11.4872 21.5311 11.7661 21.4894 12.0419C21.4383 12.3248 21.3458 12.5986 21.2148 12.8544C21.0669 13.0931 20.8648 13.2935 20.6249 13.4394C20.4246 13.5695 20.1871 13.63 19.9489 13.6117M28.1991 7.24982H24.2503V15.0498H25.9208V11.9558H28.0333V10.5063H25.9208V8.69932H28.1958V7.24982" fill="white"/>
</svg>
