<svg width="16" height="17" viewBox="0 0 16 17" fill="none" xmlns="http://www.w3.org/2000/svg">
<path d="M14.666 8.5C14.666 9.33333 14.5078 10.1138 14.1913 10.8413C13.8749 11.5689 13.4471 12.2022 12.908 12.7413C12.3689 13.2804 11.7356 13.7082 11.008 14.0247C10.2805 14.3411 9.49978 14.4996 8.66601 14.5C8.47712 14.5 8.31889 14.436 8.19134 14.308C8.06378 14.18 7.99978 14.0218 7.99934 13.8333C7.99889 13.6449 8.06289 13.4864 8.19134 13.358C8.31978 13.2296 8.47801 13.1658 8.66601 13.1667C9.96601 13.1667 11.0689 12.7138 11.9747 11.808C12.8805 10.9022 13.3331 9.79956 13.3327 8.5C13.3322 7.20044 12.8796 6.09756 11.9747 5.19133C11.0698 4.28511 9.96689 3.83244 8.66601 3.83333C7.36512 3.83422 6.26245 4.28689 5.35801 5.19133C4.45356 6.09578 4.00067 7.19867 3.99934 8.5V8.6L4.56601 8.03333C4.69934 7.9 4.85489 7.836 5.03267 7.84133C5.21045 7.84667 5.36601 7.91067 5.49934 8.03333C5.63267 8.16667 5.70223 8.32489 5.70801 8.508C5.71378 8.69111 5.64978 8.84956 5.51601 8.98333L3.79934 10.7C3.66601 10.8333 3.51045 10.9 3.33267 10.9C3.15489 10.9 2.99934 10.8333 2.86601 10.7L1.14934 8.98333C1.01601 8.85 0.952006 8.69156 0.957339 8.508C0.962672 8.32444 1.03223 8.16622 1.16601 8.03333C1.29934 7.91111 1.45489 7.84711 1.63267 7.84133C1.81045 7.83556 1.96601 7.89956 2.09934 8.03333L2.66601 8.6V8.5C2.66601 7.66667 2.82445 6.886 3.14134 6.158C3.45823 5.43 3.88601 4.79667 4.42467 4.258C4.96334 3.71933 5.59667 3.29156 6.32467 2.97467C7.05267 2.65778 7.83312 2.49956 8.66601 2.5C9.49889 2.50044 10.2796 2.65867 11.008 2.97467C11.7365 3.29067 12.3698 3.71844 12.908 4.258C13.4462 4.79755 13.874 5.43089 14.1913 6.158C14.5087 6.88511 14.6669 7.66578 14.666 8.5Z" fill="#4126A8"/>
</svg>
