<svg width="17" height="17" viewBox="0 0 17 17" fill="none" xmlns="http://www.w3.org/2000/svg">
<path d="M12.2549 11.4734L15.1082 14.3268L14.1615 15.2734L11.3082 12.4201C10.7837 12.8379 10.2104 13.1579 9.58819 13.3801C8.93041 13.6112 8.25486 13.7268 7.56152 13.7268C6.47708 13.7268 5.46819 13.4557 4.53486 12.9134C3.62819 12.3801 2.91263 11.6601 2.38819 10.7534C1.83708 9.8201 1.56152 8.81121 1.56152 7.72677C1.56152 6.64233 1.83708 5.63344 2.38819 4.7001C2.91263 3.79344 3.62819 3.07788 4.53486 2.55344C5.46819 2.00233 6.47708 1.72677 7.56152 1.72677C8.64597 1.72677 9.65486 2.00233 10.5882 2.55344C11.4949 3.07788 12.2149 3.79344 12.7482 4.7001C13.2904 5.63344 13.5615 6.64233 13.5615 7.72677C13.5615 8.4201 13.446 9.09566 13.2149 9.75344C12.9926 10.3757 12.6726 10.949 12.2549 11.4734ZM10.9082 10.9801C11.326 10.5534 11.6504 10.0645 11.8815 9.51344C12.1126 8.94455 12.2282 8.34899 12.2282 7.72677C12.2282 6.88233 12.0149 6.09566 11.5882 5.36677C11.1793 4.66455 10.6237 4.10899 9.92152 3.7001C9.19263 3.27344 8.40597 3.0601 7.56152 3.0601C6.71708 3.0601 5.93041 3.27344 5.20152 3.7001C4.4993 4.10899 3.94375 4.66455 3.53486 5.36677C3.10819 6.09566 2.89486 6.88233 2.89486 7.72677C2.89486 8.57122 3.10819 9.35788 3.53486 10.0868C3.94375 10.789 4.4993 11.3445 5.20152 11.7534C5.93041 12.1801 6.71708 12.3934 7.56152 12.3934C8.18375 12.3934 8.7793 12.2779 9.34819 12.0468C9.8993 11.8157 10.3882 11.4912 10.8149 11.0734L10.9082 10.9801Z" fill="#9CA3AF"/>
</svg>
