<svg width="13" height="13" viewBox="0 0 13 13" fill="none" xmlns="http://www.w3.org/2000/svg">
<path d="M5.99968 9.49969C6.52497 9.49969 7.04512 9.39622 7.53042 9.1952C8.01572 8.99418 8.45668 8.69955 8.82811 8.32811C9.19955 7.95668 9.49418 7.51572 9.6952 7.03042C9.89622 6.54512 9.99969 6.02497 9.99969 5.49968C9.99969 4.9744 9.89622 4.45425 9.6952 3.96895C9.49418 3.48365 9.19955 3.04269 8.82811 2.67126C8.45668 2.29982 8.01572 2.00519 7.53042 1.80417C7.04512 1.60315 6.52497 1.49968 5.99968 1.49968C4.93882 1.49968 3.9214 1.92111 3.17126 2.67126C2.42111 3.4214 1.99968 4.43882 1.99968 5.49968C1.99968 6.56055 2.42111 7.57797 3.17126 8.32811C3.9214 9.07826 4.93882 9.49969 5.99968 9.49969ZM10.213 8.77035L12.5997 11.157C12.6633 11.2186 12.714 11.2922 12.7489 11.3735C12.7838 11.4549 12.8021 11.5424 12.8028 11.6309C12.8035 11.7194 12.7866 11.8072 12.753 11.8891C12.7195 11.971 12.6699 12.0454 12.6073 12.1079C12.5446 12.1705 12.4702 12.2199 12.3882 12.2534C12.3063 12.2869 12.2185 12.3037 12.1299 12.3028C12.0414 12.302 11.954 12.2836 11.8726 12.2486C11.7913 12.2136 11.7178 12.1627 11.6564 12.099L9.26968 9.71235C8.19799 10.5443 6.84955 10.9365 5.49885 10.8091C4.14816 10.6818 2.89675 10.0446 1.99939 9.02706C1.10202 8.00956 0.626141 6.68831 0.668635 5.3323C0.711129 3.97629 1.2688 2.68743 2.22812 1.72812C3.18743 0.768797 4.47629 0.211129 5.8323 0.168635C7.18831 0.126141 8.50956 0.602016 9.52706 1.49939C10.5446 2.39675 11.1818 3.64816 11.3091 4.99885C11.4365 6.34955 11.0443 7.69799 10.2124 8.76968L10.213 8.77035Z" fill="#4126A8"/>
</svg>
