<svg width="26" height="26" viewBox="0 0 26 26" fill="none" xmlns="http://www.w3.org/2000/svg">
<path d="M12.9997 23.4166C18.7526 23.4166 23.4163 18.7529 23.4163 12.9999C23.4163 7.24695 18.7526 2.58325 12.9997 2.58325C7.24671 2.58325 2.58301 7.24695 2.58301 12.9999C2.58301 18.7529 7.24671 23.4166 12.9997 23.4166Z" stroke="#4B5563" stroke-width="1.33333" stroke-linecap="round" stroke-linejoin="round"/>
<path d="M13 14.0417C14.7259 14.0417 16.125 12.6426 16.125 10.9167C16.125 9.19086 14.7259 7.79175 13 7.79175C11.2741 7.79175 9.875 9.19086 9.875 10.9167C9.875 12.6426 11.2741 14.0417 13 14.0417Z" stroke="#4B5563" stroke-width="1.33333" stroke-linecap="round" stroke-linejoin="round"/>
<path d="M7.79199 22.0228V20.2916C7.79199 19.7391 8.01149 19.2091 8.40219 18.8184C8.79289 18.4277 9.32279 18.2083 9.87533 18.2083H16.1253C16.6779 18.2083 17.2078 18.4277 17.5985 18.8184C17.9892 19.2091 18.2087 19.7391 18.2087 20.2916V22.0228" stroke="#4B5563" stroke-width="1.33333" stroke-linecap="round" stroke-linejoin="round"/>
</svg>
