<svg width="16" height="17" viewBox="0 0 16 17" fill="none" xmlns="http://www.w3.org/2000/svg">
<path d="M14.3633 7.8635C14.566 8.1475 14.6673 8.29016 14.6673 8.50016C14.6673 8.71083 14.566 8.85283 14.3633 9.13683C13.4527 10.4142 11.1267 13.1668 8.00065 13.1668C4.87398 13.1668 2.54865 10.4135 1.63798 9.13683C1.43532 8.85283 1.33398 8.71016 1.33398 8.50016C1.33398 8.2895 1.43532 8.1475 1.63798 7.8635C2.54865 6.58616 4.87465 3.8335 8.00065 3.8335C11.1273 3.8335 13.4527 6.58683 14.3633 7.8635Z" stroke="white" stroke-width="1.5" stroke-linecap="round" stroke-linejoin="round"/>
<path d="M10 8.5C10 7.96957 9.78929 7.46086 9.41421 7.08579C9.03914 6.71071 8.53043 6.5 8 6.5C7.46957 6.5 6.96086 6.71071 6.58579 7.08579C6.21071 7.46086 6 7.96957 6 8.5C6 9.03043 6.21071 9.53914 6.58579 9.91421C6.96086 10.2893 7.46957 10.5 8 10.5C8.53043 10.5 9.03914 10.2893 9.41421 9.91421C9.78929 9.53914 10 9.03043 10 8.5Z" stroke="white" stroke-width="1.5" stroke-linecap="round" stroke-linejoin="round"/>
</svg>
