<svg width="41" height="40" viewBox="0 0 41 40" fill="none" xmlns="http://www.w3.org/2000/svg">
<path d="M28.5003 35L23.917 30L25.8503 28.0667L28.5003 30.7167L34.4837 24.7333L36.417 27.0833M21.5003 35H8.50033C6.65033 35 5.16699 33.5167 5.16699 31.6667V8.33333C5.16699 6.48333 6.65033 5 8.50033 5H31.8337C33.6837 5 35.167 6.48333 35.167 8.33333V21.3333C34.1503 20.75 33.0337 20.3333 31.8337 20.1333V8.33333H8.50033V31.6667H20.3003C20.5003 32.8667 20.917 33.9833 21.5003 35ZM20.167 28.3333H11.8337V25H20.167M24.6337 21.6667H11.8337V18.3333H28.5003V20.1333C27.0837 20.3667 25.7837 20.9 24.6337 21.6667ZM28.5003 15H11.8337V11.6667H28.5003" fill="black"/>
</svg>
