<svg width="41" height="40" viewBox="0 0 41 40" fill="none" xmlns="http://www.w3.org/2000/svg">
<path d="M32.4793 3.35156L37.4793 8.35156L33.6677 12.1649L28.6677 7.1649L32.4793 3.35156ZM14.166 26.6649H19.166L31.311 14.5199L26.311 9.5199L14.166 21.6649V26.6649Z" fill="black"/>
<path d="M32.4997 31.6667H14.4297C14.3863 31.6667 14.3413 31.6833 14.298 31.6833C14.243 31.6833 14.188 31.6683 14.1313 31.6667H9.16634V8.33333H20.578L23.9113 5H9.16634C7.32801 5 5.83301 6.49333 5.83301 8.33333V31.6667C5.83301 33.5067 7.32801 35 9.16634 35H32.4997C33.3837 35 34.2316 34.6488 34.8567 34.0237C35.4818 33.3986 35.833 32.5507 35.833 31.6667V17.22L32.4997 20.5533V31.6667Z" fill="black"/>
</svg>
