<svg width="41" height="40" viewBox="0 0 41 40" fill="none" xmlns="http://www.w3.org/2000/svg">
<path d="M32.1667 5H8.83333C6.99238 5 5.5 6.49238 5.5 8.33333V31.6667C5.5 33.5076 6.99238 35 8.83333 35H32.1667C34.0076 35 35.5 33.5076 35.5 31.6667V8.33333C35.5 6.49238 34.0076 5 32.1667 5Z" stroke="black" stroke-width="3.33333" stroke-linecap="round" stroke-linejoin="round"/>
<path d="M15.5003 18.3346C17.3413 18.3346 18.8337 16.8423 18.8337 15.0013C18.8337 13.1604 17.3413 11.668 15.5003 11.668C13.6594 11.668 12.167 13.1604 12.167 15.0013C12.167 16.8423 13.6594 18.3346 15.5003 18.3346Z" stroke="black" stroke-width="3.33333" stroke-linecap="round" stroke-linejoin="round"/>
<path d="M35.5 24.9982L30.3567 19.8549C29.7316 19.23 28.8839 18.8789 28 18.8789C27.1161 18.8789 26.2684 19.23 25.6433 19.8549L10.5 34.9982" stroke="black" stroke-width="3.33333" stroke-linecap="round" stroke-linejoin="round"/>
</svg>
