<svg width="41" height="40" viewBox="0 0 41 40" fill="none" xmlns="http://www.w3.org/2000/svg">
<path d="M25.5 16.6667L33.0883 12.8733C33.3424 12.7464 33.6246 12.6865 33.9083 12.6992C34.192 12.712 34.4677 12.7971 34.7093 12.9463C34.9509 13.0956 35.1504 13.3041 35.2888 13.5521C35.4271 13.8001 35.4998 14.0793 35.5 14.3633V25.6367C35.4998 25.9207 35.4271 26.1999 35.2888 26.4479C35.1504 26.6959 34.9509 26.9044 34.7093 27.0537C34.4677 27.2029 34.192 27.288 33.9083 27.3008C33.6246 27.3135 33.3424 27.2536 33.0883 27.1267L25.5 23.3333V16.6667ZM5.5 13.3333C5.5 12.4493 5.85119 11.6014 6.47631 10.9763C7.10143 10.3512 7.94928 10 8.83333 10H22.1667C23.0507 10 23.8986 10.3512 24.5237 10.9763C25.1488 11.6014 25.5 12.4493 25.5 13.3333V26.6667C25.5 27.5507 25.1488 28.3986 24.5237 29.0237C23.8986 29.6488 23.0507 30 22.1667 30H8.83333C7.94928 30 7.10143 29.6488 6.47631 29.0237C5.85119 28.3986 5.5 27.5507 5.5 26.6667V13.3333Z" stroke="black" stroke-width="3.33333" stroke-linecap="round" stroke-linejoin="round"/>
</svg>
