<svg width="41" height="40" viewBox="0 0 41 40" fill="none" xmlns="http://www.w3.org/2000/svg">
<path d="M10.5003 33.3334C9.58366 33.3334 8.79921 33.0072 8.14699 32.355C7.49477 31.7028 7.1681 30.9178 7.16699 30V26.6667C7.16699 26.1945 7.32699 25.7989 7.64699 25.48C7.96699 25.1611 8.36255 25.0011 8.83366 25C9.30477 24.9989 9.70088 25.1589 10.022 25.48C10.3431 25.8011 10.5025 26.1967 10.5003 26.6667V30H30.5003V26.6667C30.5003 26.1945 30.6603 25.7989 30.9803 25.48C31.3003 25.1611 31.6959 25.0011 32.167 25C32.6381 24.9989 33.0342 25.1589 33.3553 25.48C33.6764 25.8011 33.8359 26.1967 33.8337 26.6667V30C33.8337 30.9167 33.5075 31.7017 32.8553 32.355C32.2031 33.0084 31.4181 33.3345 30.5003 33.3334H10.5003ZM18.8337 13.0834L15.7087 16.2084C15.3753 16.5417 14.9798 16.7017 14.522 16.6884C14.0642 16.675 13.6681 16.5011 13.3337 16.1667C13.0281 15.8334 12.8681 15.4445 12.8537 15C12.8392 14.5556 12.9992 14.1667 13.3337 13.8334L19.3337 7.83336C19.5003 7.66669 19.6809 7.54891 19.8753 7.48003C20.0698 7.41114 20.2781 7.37614 20.5003 7.37503C20.7225 7.37391 20.9309 7.40891 21.1253 7.48003C21.3198 7.55114 21.5003 7.66891 21.667 7.83336L27.667 13.8334C28.0003 14.1667 28.1603 14.5556 28.147 15C28.1337 15.4445 27.9737 15.8334 27.667 16.1667C27.3337 16.5 26.9381 16.6739 26.4803 16.6884C26.0225 16.7028 25.6264 16.5428 25.292 16.2084L22.167 13.0834V25C22.167 25.4722 22.007 25.8684 21.687 26.1884C21.367 26.5084 20.9714 26.6678 20.5003 26.6667C20.0292 26.6656 19.6337 26.5056 19.3137 26.1867C18.9937 25.8678 18.8337 25.4722 18.8337 25V13.0834Z" fill="black"/>
</svg>
