<svg width="41" height="40" viewBox="0 0 41 40" fill="none" xmlns="http://www.w3.org/2000/svg">
<path d="M3.33301 12.7333H24.5656V16.6H3.33301V12.7333ZM3.33301 8.86667H24.5656V5H3.33301V8.86667ZM3.33301 24.3333H16.8447V20.4667H3.33301V24.3333ZM32.3058 18.282L33.6763 16.9093C33.8549 16.7301 34.067 16.5879 34.3005 16.4909C34.534 16.3939 34.7843 16.3439 35.0371 16.3439C35.2899 16.3439 35.5402 16.3939 35.7738 16.4909C36.0073 16.5879 36.2194 16.7301 36.3979 16.9093L37.7684 18.282C38.5212 19.036 38.5212 20.254 37.7684 21.008L36.3979 22.3807L32.3058 18.282ZM30.9354 19.6547L20.7051 29.9013V34H24.7972L35.0275 23.7533L30.9354 19.6547Z" fill="black"/>
</svg>
