<svg width="51" height="52" viewBox="0 0 51 52" fill="none" xmlns="http://www.w3.org/2000/svg">
<path d="M25.5 47.25C13.7636 47.25 4.25 37.7364 4.25 26C4.25 14.2636 13.7636 4.75 25.5 4.75C37.2364 4.75 46.75 14.2636 46.75 26C46.75 37.7364 37.2364 47.25 25.5 47.25ZM25.5 43C30.0087 43 34.3327 41.2089 37.5208 38.0208C40.7089 34.8327 42.5 30.5087 42.5 26C42.5 21.4913 40.7089 17.1673 37.5208 13.9792C34.3327 10.7911 30.0087 9 25.5 9C20.9913 9 16.6673 10.7911 13.4792 13.9792C10.2911 17.1673 8.5 21.4913 8.5 26C8.5 30.5087 10.2911 34.8327 13.4792 38.0208C16.6673 41.2089 20.9913 43 25.5 43ZM23.375 32.375H27.625V36.625H23.375V32.375ZM27.625 28.8794V30.25H23.375V27.0625C23.375 26.4989 23.5989 25.9584 23.9974 25.5599C24.3959 25.1614 24.9364 24.9375 25.5 24.9375C26.1037 24.9375 26.6949 24.766 27.2049 24.4431C27.715 24.1201 28.1228 23.659 28.381 23.1134C28.6392 22.5677 28.7372 21.9599 28.6634 21.3608C28.5897 20.7616 28.3474 20.1957 27.9646 19.7289C27.5819 19.2621 27.0744 18.9136 26.5013 18.7239C25.9283 18.5343 25.3131 18.5112 24.7274 18.6575C24.1417 18.8038 23.6096 19.1134 23.193 19.5502C22.7764 19.9871 22.4924 20.5333 22.3741 21.1252L18.2049 20.2901C18.4633 18.9983 19.0602 17.7983 19.9345 16.8127C20.8087 15.8272 21.929 15.0915 23.1808 14.6808C24.4325 14.2701 25.7709 14.1992 27.0591 14.4753C28.3472 14.7514 29.539 15.3646 30.5125 16.2523C31.486 17.1399 32.2063 18.2701 32.5999 19.5274C32.9934 20.7847 33.046 22.1239 32.7523 23.4082C32.4587 24.6924 31.8292 25.8757 30.9284 26.837C30.0275 27.7982 28.8875 28.5031 27.625 28.8794Z" fill="#DD0B00"/>
</svg>
