<svg width="19" height="18" viewBox="0 0 19 18" fill="none" xmlns="http://www.w3.org/2000/svg">
<path d="M10.8848 15.75C10.6748 15.75 10.4973 15.6775 10.3523 15.5325C10.2073 15.3875 10.1348 15.21 10.1348 15V9C10.1348 8.79 10.2073 8.6125 10.3523 8.4675C10.4973 8.3225 10.6748 8.25 10.8848 8.25H15.3848C15.5948 8.25 15.7723 8.3225 15.9173 8.4675C16.0623 8.6125 16.1348 8.79 16.1348 9V15C16.1348 15.21 16.0623 15.3875 15.9173 15.5325C15.7723 15.6775 15.5948 15.75 15.3848 15.75H10.8848ZM3.38477 9.75C3.17477 9.75 2.99727 9.6775 2.85227 9.5325C2.70727 9.3875 2.63477 9.21 2.63477 9V3C2.63477 2.79 2.70727 2.6125 2.85227 2.4675C2.99727 2.3225 3.17477 2.25 3.38477 2.25H7.88477C8.09477 2.25 8.27227 2.3225 8.41727 2.4675C8.56227 2.6125 8.63477 2.79 8.63477 3V9C8.63477 9.21 8.56227 9.3875 8.41727 9.5325C8.27227 9.6775 8.09477 9.75 7.88477 9.75H3.38477ZM7.13477 8.25V3.75H4.13477V8.25H7.13477ZM3.38477 15.75C3.17477 15.75 2.99727 15.6775 2.85227 15.5325C2.70727 15.3875 2.63477 15.21 2.63477 15V12C2.63477 11.79 2.70727 11.6125 2.85227 11.4675C2.99727 11.3225 3.17477 11.25 3.38477 11.25H7.88477C8.09477 11.25 8.27227 11.3225 8.41727 11.4675C8.56227 11.6125 8.63477 11.79 8.63477 12V15C8.63477 15.21 8.56227 15.3875 8.41727 15.5325C8.27227 15.6775 8.09477 15.75 7.88477 15.75H3.38477ZM4.13477 14.25H7.13477V12.75H4.13477V14.25ZM11.6348 14.25H14.6348V9.75H11.6348V14.25ZM10.1348 3C10.1348 2.79 10.2073 2.6125 10.3523 2.4675C10.4973 2.3225 10.6748 2.25 10.8848 2.25H15.3848C15.5948 2.25 15.7723 2.3225 15.9173 2.4675C16.0623 2.6125 16.1348 2.79 16.1348 3V6C16.1348 6.21 16.0623 6.3875 15.9173 6.5325C15.7723 6.6775 15.5948 6.75 15.3848 6.75H10.8848C10.6748 6.75 10.4973 6.6775 10.3523 6.5325C10.2073 6.3875 10.1348 6.21 10.1348 6V3ZM11.6348 3.75V5.25H14.6348V3.75H11.6348Z" fill="black"/>
</svg>
