<svg width="18" height="18" viewBox="0 0 18 18" fill="none" xmlns="http://www.w3.org/2000/svg">
<g clip-path="url(#clip0_737_6984)">
<path d="M4.55272 1.5C3.57472 1.59675 2.91622 1.81425 2.42422 2.307C1.54297 3.18975 1.54297 4.611 1.54297 7.45425V10.4692C1.54297 13.3117 1.54297 14.7337 2.42422 15.6172C3.30547 16.5007 4.72447 16.5 7.56172 16.5H9.06697C11.9042 16.5 13.3232 16.5 14.2045 15.6172C15.0047 14.8147 15.079 13.5795 15.0857 11.2328" stroke="black" stroke-width="1.5" stroke-linecap="round" stroke-linejoin="round"/>
<path d="M7.56177 5.25073L8.31402 7.87573C8.73402 8.70823 9.26127 8.92573 10.5715 9.00073C11.6133 8.97523 12.2178 8.85223 12.7338 8.40373C13.0855 8.09773 13.2445 7.63648 13.3218 7.17748L13.5798 5.62573M15.4608 4.12573V7.87573M6.11802 3.70048C7.30827 2.71273 8.36877 2.18248 10.5685 1.59898C10.8167 1.53347 11.0778 1.53476 11.3253 1.60273C13.2723 2.13823 14.3238 2.61373 15.7323 3.67123C15.7923 3.71623 15.8103 3.80023 15.7683 3.86248C15.3085 4.53898 14.2818 5.08723 11.7633 6.06373C11.2387 6.26558 10.6573 6.26237 10.135 6.05473C7.45302 4.98973 6.22002 4.41973 6.07002 3.82798C6.06514 3.80437 6.06706 3.77985 6.07556 3.75729C6.08405 3.73472 6.09878 3.71502 6.11802 3.70048Z" stroke="black" stroke-width="1.5" stroke-linecap="round" stroke-linejoin="round"/>
</g>
<defs>
<clipPath id="clip0_737_6984">
<rect width="18" height="18" fill="white"/>
</clipPath>
</defs>
</svg>
