<svg width="18" height="18" viewBox="0 0 18 18" fill="none" xmlns="http://www.w3.org/2000/svg">
<path fill-rule="evenodd" clip-rule="evenodd" d="M15 2.25C15.3784 2.24988 15.7429 2.3928 16.0204 2.65012C16.2979 2.90744 16.4679 3.26013 16.4963 3.6375L16.5 3.75V14.25C16.5001 14.6284 16.3572 14.9929 16.0999 15.2704C15.8426 15.5479 15.4899 15.7179 15.1125 15.7463L15 15.75H3C2.62157 15.7501 2.25708 15.6072 1.97959 15.3499C1.7021 15.0926 1.53213 14.7399 1.50375 14.3625L1.5 14.25V3.75C1.49988 3.37157 1.6428 3.00708 1.90012 2.72959C2.15744 2.4521 2.51013 2.28213 2.8875 2.25375L3 2.25H15ZM15 3.75H3V14.25H15V3.75ZM7.755 5.7285L8.1435 5.901L8.397 6.021L8.68725 6.1635L9.00975 6.327L9.36225 6.5145L9.7425 6.7245L9.942 6.8385L10.3305 7.06725L10.686 7.28625L11.0085 7.491L11.2935 7.68075L11.6535 7.92825L11.9265 8.1255L11.9977 8.178C12.1135 8.26413 12.2075 8.37612 12.2723 8.50504C12.337 8.63395 12.3708 8.77623 12.3708 8.9205C12.3708 9.06477 12.337 9.20705 12.2723 9.33597C12.2075 9.46488 12.1135 9.57687 11.9977 9.663L11.7555 9.83925L11.4255 10.0703L11.1585 10.2495L10.8547 10.4467L10.515 10.659L10.1407 10.884L9.74025 11.1158L9.3585 11.3272L9.00525 11.5147L8.68275 11.6798L8.39325 11.8207L7.92675 12.0367L7.75425 12.1117C7.62182 12.1688 7.47788 12.1941 7.33392 12.1857C7.18996 12.1773 7.04997 12.1354 6.92509 12.0632C6.80022 11.9911 6.69393 11.8908 6.6147 11.7703C6.53547 11.6498 6.48549 11.5125 6.46875 11.3693L6.42525 10.9455L6.40125 10.665L6.36975 10.167L6.3525 9.786L6.34125 9.36975L6.33825 9.14925L6.33675 8.9205C6.33675 8.7655 6.33825 8.6155 6.34125 8.4705L6.3525 8.05425L6.36975 7.674L6.39 7.33125L6.4125 7.0305L6.46875 6.4725C6.48539 6.32911 6.53532 6.1916 6.61454 6.07093C6.69377 5.95027 6.8001 5.84979 6.92505 5.77751C7.05 5.70524 7.19012 5.66317 7.33422 5.65466C7.47832 5.64615 7.62241 5.67143 7.755 5.7285ZM8.21325 7.60425L7.88625 7.44075L7.8645 7.806L7.848 8.21925L7.83825 8.67675L7.83675 8.9205L7.83825 9.16425L7.848 9.621L7.8555 9.83325L7.875 10.2232L7.88625 10.3995L8.21175 10.236L8.577 10.044L8.97825 9.8235L9.19125 9.702L9.6045 9.4575L9.975 9.228L10.302 9.018L10.449 8.9205L10.1437 8.718L9.79425 8.4975C9.59538 8.37438 9.39461 8.25436 9.192 8.1375L8.97975 8.01675L8.57925 7.79625L8.21325 7.60425Z" fill="black"/>
</svg>
