<svg width="18" height="18" viewBox="0 0 18 18" fill="none" xmlns="http://www.w3.org/2000/svg">
<g clip-path="url(#clip0_737_7007)">
<path d="M9 5.4L13.8 7.8V17.4H4.2V7.8L9 5.4ZM9 5.4V0M0 17.4H18M1.8 17.4V10.2H4.2M16.2 17.4V10.2H13.8M7.8 17.4V13.8H10.2V17.4M9 0.6H12.6V3H9M9 11.4C8.33726 11.4 7.8 10.8627 7.8 10.2C7.8 9.53726 8.33726 9 9 9C9.66274 9 10.2 9.53726 10.2 10.2C10.2 10.8627 9.66274 11.4 9 11.4Z" stroke="black" stroke-width="1.5"/>
</g>
<defs>
<clipPath id="clip0_737_7007">
<rect width="18" height="18" fill="white"/>
</clipPath>
</defs>
</svg>
