<svg width="18" height="18" viewBox="0 0 18 18" fill="none" xmlns="http://www.w3.org/2000/svg">
<path d="M6 3.75H4.5C4.10218 3.75 3.72064 3.90804 3.43934 4.18934C3.15804 4.47064 3 4.85218 3 5.25V14.25C3 14.6478 3.15804 15.0294 3.43934 15.3107C3.72064 15.592 4.10218 15.75 4.5 15.75H8.77275M13.5 10.5V13.5H16.5M13.5 8.25V5.25C13.5 4.85218 13.342 4.47064 13.0607 4.18934C12.7794 3.90804 12.3978 3.75 12 3.75H10.5" stroke="black" stroke-width="1.5" stroke-linecap="round" stroke-linejoin="round"/>
<path d="M6 8.25H9M6 11.25H8.25M6 3.75C6 3.35218 6.15804 2.97064 6.43934 2.68934C6.72064 2.40804 7.10218 2.25 7.5 2.25H9C9.39782 2.25 9.77936 2.40804 10.0607 2.68934C10.342 2.97064 10.5 3.35218 10.5 3.75C10.5 4.14782 10.342 4.52936 10.0607 4.81066C9.77936 5.09196 9.39782 5.25 9 5.25H7.5C7.10218 5.25 6.72064 5.09196 6.43934 4.81066C6.15804 4.52936 6 4.14782 6 3.75ZM10.5 13.5C10.5 14.2956 10.8161 15.0587 11.3787 15.6213C11.9413 16.1839 12.7044 16.5 13.5 16.5C14.2956 16.5 15.0587 16.1839 15.6213 15.6213C16.1839 15.0587 16.5 14.2956 16.5 13.5C16.5 12.7044 16.1839 11.9413 15.6213 11.3787C15.0587 10.8161 14.2956 10.5 13.5 10.5C12.7044 10.5 11.9413 10.8161 11.3787 11.3787C10.8161 11.9413 10.5 12.7044 10.5 13.5Z" stroke="black" stroke-width="1.5" stroke-linecap="round" stroke-linejoin="round"/>
</svg>
