<svg width="18" height="18" viewBox="0 0 18 18" fill="none" xmlns="http://www.w3.org/2000/svg">
<g clip-path="url(#clip0_737_7021)">
<path d="M0.5625 17.4375H17.4375M3.135 6.93L15.1875 1.455M15.1875 1.455L14.295 3.8475M15.1875 1.455L12.8025 0.5625M4.5 12.1875H2.25C2.10142 12.1894 1.95947 12.2493 1.8544 12.3544C1.74933 12.4595 1.68944 12.6014 1.6875 12.75V17.4375H5.0625V12.75C5.06056 12.6014 5.00067 12.4595 4.8956 12.3544C4.79053 12.2493 4.64858 12.1894 4.5 12.1875ZM10.125 9.1875H7.875C7.72642 9.18944 7.58447 9.24933 7.4794 9.3544C7.37433 9.45947 7.31444 9.60142 7.3125 9.75V17.4375H10.6875V9.75C10.6856 9.60142 10.6257 9.45947 10.5206 9.3544C10.4155 9.24933 10.2736 9.18944 10.125 9.1875ZM15.75 6.1875H13.5C13.3514 6.18944 13.2095 6.24933 13.1044 6.3544C12.9993 6.45947 12.9394 6.60142 12.9375 6.75V17.4375H16.3125V6.75C16.3106 6.60142 16.2507 6.45947 16.1456 6.3544C16.0405 6.24933 15.8986 6.18944 15.75 6.1875Z" stroke="black" stroke-width="1.5" stroke-linecap="round" stroke-linejoin="round"/>
</g>
<defs>
<clipPath id="clip0_737_7021">
<rect width="18" height="18" fill="white"/>
</clipPath>
</defs>
</svg>
