<svg width="18" height="18" viewBox="0 0 18 18" fill="none" xmlns="http://www.w3.org/2000/svg">
<path d="M9 8.25C9.74168 8.25 10.4667 8.03007 11.0834 7.61801C11.7001 7.20596 12.1807 6.62029 12.4645 5.93506C12.7484 5.24984 12.8226 4.49584 12.6779 3.76841C12.5333 3.04098 12.1761 2.3728 11.6517 1.84835C11.1272 1.3239 10.459 0.966751 9.73159 0.822057C9.00416 0.677362 8.25016 0.751625 7.56494 1.03545C6.87971 1.31928 6.29404 1.79993 5.88199 2.41661C5.46993 3.0333 5.25 3.75832 5.25 4.5C5.25119 5.4942 5.64666 6.44733 6.34966 7.15034C7.05267 7.85334 8.0058 8.24881 9 8.25ZM9 2.25C9.44501 2.25 9.88002 2.38196 10.25 2.62919C10.62 2.87643 10.9084 3.22783 11.0787 3.63896C11.249 4.0501 11.2936 4.5025 11.2068 4.93895C11.12 5.37541 10.9057 5.77632 10.591 6.09099C10.2763 6.40566 9.87541 6.61995 9.43895 6.70677C9.0025 6.79359 8.5501 6.74903 8.13896 6.57873C7.72783 6.40843 7.37643 6.12005 7.12919 5.75003C6.88196 5.38002 6.75 4.94501 6.75 4.5C6.75 3.90326 6.98705 3.33097 7.40901 2.90901C7.83097 2.48705 8.40326 2.25 9 2.25ZM2.25 16.5V13.5C2.25119 12.5058 2.64666 11.5527 3.34966 10.8497C4.05267 10.1467 5.0058 9.75119 6 9.75H12C12.9942 9.75119 13.9473 10.1467 14.6503 10.8497C15.3533 11.5527 15.7488 12.5058 15.75 13.5V16.5C15.75 16.6989 15.671 16.8897 15.5303 17.0303C15.3897 17.171 15.1989 17.25 15 17.25C14.8011 17.25 14.6103 17.171 14.4697 17.0303C14.329 16.8897 14.25 16.6989 14.25 16.5V13.5C14.25 12.9033 14.0129 12.331 13.591 11.909C13.169 11.4871 12.5967 11.25 12 11.25H6C5.40326 11.25 4.83097 11.4871 4.40901 11.909C3.98705 12.331 3.75 12.9033 3.75 13.5V16.5C3.75 16.6989 3.67098 16.8897 3.53033 17.0303C3.38968 17.171 3.19891 17.25 3 17.25C2.80109 17.25 2.61032 17.171 2.46967 17.0303C2.32902 16.8897 2.25 16.6989 2.25 16.5Z" fill="black"/>
</svg>
