<svg width="54" height="54" viewBox="0 0 54 54" fill="none" xmlns="http://www.w3.org/2000/svg">
<rect x="0.5" y="0.5" width="53" height="53" rx="26.5" fill="#F0FDF4"/>
<rect x="0.5" y="0.5" width="53" height="53" rx="26.5" stroke="#16A34A"/>
<path d="M24.5966 30.1398C23.1787 29.7276 21.933 28.8662 21.0467 27.6852C20.1604 26.5043 19.6814 25.0675 19.6818 23.5909V14.5H33.3182V24.7273M19.6818 16.7727H14V21.3182C14 24.1693 16.0352 25.8636 18.5455 25.8636H19.6818M35.6295 25.733C37.5705 25.2841 39 23.708 39 21.3182V16.7727H33.3182M24.2273 34.9545H18.5455V39.5H31.6136M31.6136 39.5C29.6547 39.5 27.7759 38.7218 26.3907 37.3366C25.0055 35.9514 24.2273 34.0726 24.2273 32.1136C24.2273 30.1547 25.0055 28.2759 26.3907 26.8907C27.7759 25.5055 29.6547 24.7273 31.6136 24.7273C33.5726 24.7273 35.4514 25.5055 36.8366 26.8907C38.2218 28.2759 39 30.1547 39 32.1136C39 34.0726 38.2218 35.9514 36.8366 37.3366C35.4514 38.7218 33.5726 39.5 31.6136 39.5ZM35.5909 29.2727L30.4773 34.3864L27.6364 31.5455M24.4614 30.8909C23.7077 31.2691 23.0741 31.8494 22.6314 32.5671C22.1887 33.2847 21.9544 34.1113 21.9545 34.9545" stroke="#16A34A" stroke-width="2"/>
</svg>
