<svg width="16" height="17" viewBox="0 0 16 17" fill="none" xmlns="http://www.w3.org/2000/svg">
<path d="M2.6663 7.16648L2.19497 7.63782L1.72363 7.16648L2.19497 6.69515L2.6663 7.16648ZM13.9996 12.4998C13.9996 12.6766 13.9294 12.8462 13.8044 12.9712C13.6793 13.0962 13.5098 13.1665 13.333 13.1665C13.1562 13.1665 12.9866 13.0962 12.8616 12.9712C12.7365 12.8462 12.6663 12.6766 12.6663 12.4998H13.9996ZM5.5283 10.9711L2.19497 7.63782L3.13763 6.69515L6.47097 10.0285L5.5283 10.9711ZM2.19497 6.69515L5.5283 3.36182L6.47097 4.30448L3.13763 7.63782L2.19497 6.69515ZM2.6663 6.49982H9.33297V7.83315H2.6663V6.49982ZM13.9996 11.1665V12.4998H12.6663V11.1665H13.9996ZM9.33297 6.49982C10.5706 6.49982 11.7576 6.99148 12.6328 7.86665C13.508 8.74182 13.9996 9.92881 13.9996 11.1665H12.6663C12.6663 10.2824 12.3151 9.43458 11.69 8.80946C11.0649 8.18434 10.217 7.83315 9.33297 7.83315V6.49982Z" fill="white"/>
</svg>
