<svg width="15" height="15" viewBox="0 0 15 15" fill="none" xmlns="http://www.w3.org/2000/svg">
<path d="M7.393 4.3633C6.71526 3.5007 5.6705 2.6381 3.08123 2.5748C2.91116 2.57065 2.77246 2.70879 2.77246 2.87891C2.77246 4.14092 2.77246 8.91872 2.77246 10.3317C2.77246 10.5018 2.91117 10.6355 3.0812 10.641C5.67049 10.7257 6.71526 11.8736 7.393 12.7363M7.393 4.3633C8.07074 3.5007 9.11547 2.6381 11.7048 2.5748C11.8749 2.57065 12.0135 2.70568 12.0135 2.87581C12.0135 4.28652 12.0135 8.92057 12.0135 10.3313C12.0135 10.5014 11.8749 10.6355 11.7048 10.641C9.11553 10.7257 8.07074 11.8736 7.393 12.7363M7.393 4.3633V12.7363" stroke="#4126A8" stroke-width="0.821429" stroke-linejoin="round"/>
<path d="M11.8496 3.80322H13.2448C13.4149 3.80322 13.5529 3.94114 13.5529 4.11126V12.1442C13.5529 12.3935 13.2592 12.5591 13.0314 12.4579C12.5415 12.2402 11.7241 11.9743 10.6537 11.9743C8.84171 11.9743 7.39216 13.0443 7.39216 13.0443C7.39216 13.0443 5.94258 11.9743 4.1306 11.9743C3.06022 11.9743 2.24276 12.2402 1.75293 12.4579C1.52511 12.5591 1.23145 12.3935 1.23145 12.1442V4.11126C1.23145 3.94114 1.36936 3.80322 1.53948 3.80322H2.9347" stroke="#4126A8" stroke-width="0.821429" stroke-linejoin="round"/>
</svg>
