<svg width="15" height="15" viewBox="0 0 15 15" fill="none" xmlns="http://www.w3.org/2000/svg">
<path d="M7.78646 12.9406C6.97951 12.9406 6.22118 12.7874 5.51146 12.4809C4.80174 12.1745 4.18438 11.759 3.65938 11.2343C3.13438 10.7097 2.71885 10.0924 2.41279 9.38226C2.10674 8.67215 1.95351 7.91381 1.95313 7.10726C1.95274 6.3007 2.10596 5.54237 2.41279 4.83226C2.71963 4.12215 3.13515 3.50479 3.65938 2.98018C4.1836 2.45556 4.80096 2.04004 5.51146 1.73359C6.22196 1.42715 6.98029 1.27393 7.78646 1.27393C8.59263 1.27393 9.35096 1.42715 10.0615 1.73359C10.772 2.04004 11.3893 2.45556 11.9135 2.98018C12.4378 3.50479 12.8535 4.12215 13.1607 4.83226C13.4679 5.54237 13.621 6.3007 13.6198 7.10726C13.6186 7.91381 13.4654 8.67215 13.1601 9.38226C12.8548 10.0924 12.4393 10.7097 11.9135 11.2343C11.3878 11.759 10.7704 12.1747 10.0615 12.4815C9.35251 12.7883 8.59418 12.9414 7.78646 12.9406ZM7.78646 11.7739C9.08924 11.7739 10.1927 11.3218 11.0969 10.4177C12.001 9.51351 12.4531 8.41004 12.4531 7.10726C12.4531 5.80448 12.001 4.70101 11.0969 3.79684C10.1927 2.89268 9.08924 2.44059 7.78646 2.44059C6.48368 2.44059 5.38021 2.89268 4.47604 3.79684C3.57188 4.70101 3.11979 5.80448 3.11979 7.10726C3.11979 8.41004 3.57188 9.51351 4.47604 10.4177C5.38021 11.3218 6.48368 11.7739 7.78646 11.7739ZM7.78646 10.6073C6.81424 10.6073 5.98785 10.267 5.30729 9.58643C4.62674 8.90587 4.28646 8.07948 4.28646 7.10726C4.28646 6.13504 4.62674 5.30865 5.30729 4.62809C5.98785 3.94754 6.81424 3.60726 7.78646 3.60726C8.75868 3.60726 9.58507 3.94754 10.2656 4.62809C10.9462 5.30865 11.2865 6.13504 11.2865 7.10726C11.2865 8.07948 10.9462 8.90587 10.2656 9.58643C9.58507 10.267 8.75868 10.6073 7.78646 10.6073ZM7.78646 9.44059C8.42813 9.44059 8.97743 9.21212 9.43438 8.75518C9.89132 8.29823 10.1198 7.74893 10.1198 7.10726C10.1198 6.46559 9.89132 5.91629 9.43438 5.45934C8.97743 5.0024 8.42813 4.77393 7.78646 4.77393C7.14479 4.77393 6.59549 5.0024 6.13854 5.45934C5.6816 5.91629 5.45313 6.46559 5.45313 7.10726C5.45313 7.74893 5.6816 8.29823 6.13854 8.75518C6.59549 9.21212 7.14479 9.44059 7.78646 9.44059ZM7.78646 8.27393C7.46563 8.27393 7.19107 8.15979 6.96279 7.93151C6.73451 7.70323 6.62018 7.42848 6.61979 7.10726C6.6194 6.78604 6.73374 6.51148 6.96279 6.28359C7.19185 6.0557 7.4664 5.94137 7.78646 5.94059C8.10651 5.93981 8.38126 6.05415 8.61071 6.28359C8.84015 6.51304 8.95429 6.78759 8.95313 7.10726C8.95196 7.42693 8.83782 7.70168 8.61071 7.93151C8.3836 8.16134 8.10885 8.27548 7.78646 8.27393Z" fill="#4126A8"/>
</svg>
