<svg width="16" height="17" viewBox="0 0 16 17" fill="none" xmlns="http://www.w3.org/2000/svg">
<path d="M14.667 8.5C14.667 9.33333 14.5088 10.1138 14.1923 10.8413C13.8759 11.5689 13.4481 12.2022 12.909 12.7413C12.3699 13.2804 11.7365 13.7082 11.009 14.0247C10.2814 14.3411 9.50076 14.4996 8.66698 14.5C8.47809 14.5 8.31987 14.436 8.19232 14.308C8.06476 14.18 8.00076 14.0218 8.00032 13.8333C7.99987 13.6449 8.06387 13.4864 8.19232 13.358C8.32076 13.2296 8.47898 13.1658 8.66698 13.1667C9.96698 13.1667 11.0699 12.7138 11.9756 11.808C12.8814 10.9022 13.3341 9.79956 13.3336 8.5C13.3332 7.20044 12.8805 6.09756 11.9756 5.19133C11.0708 4.28511 9.96787 3.83244 8.66698 3.83333C7.36609 3.83422 6.26343 4.28689 5.35898 5.19133C4.45454 6.09578 4.00165 7.19867 4.00032 8.5V8.6L4.56698 8.03333C4.70032 7.9 4.85587 7.836 5.03365 7.84133C5.21143 7.84667 5.36698 7.91067 5.50032 8.03333C5.63365 8.16667 5.7032 8.32489 5.70898 8.508C5.71476 8.69111 5.65076 8.84956 5.51698 8.98333L3.80032 10.7C3.66698 10.8333 3.51143 10.9 3.33365 10.9C3.15587 10.9 3.00032 10.8333 2.86698 10.7L1.15032 8.98333C1.01698 8.85 0.952982 8.69156 0.958316 8.508C0.963649 8.32444 1.0332 8.16622 1.16698 8.03333C1.30032 7.91111 1.45587 7.84711 1.63365 7.84133C1.81143 7.83556 1.96698 7.89956 2.10032 8.03333L2.66698 8.6V8.5C2.66698 7.66667 2.82543 6.886 3.14232 6.158C3.4592 5.43 3.88698 4.79667 4.42565 4.258C4.96432 3.71933 5.59765 3.29156 6.32565 2.97467C7.05365 2.65778 7.83409 2.49956 8.66698 2.5C9.49987 2.50044 10.2805 2.65867 11.009 2.97467C11.7374 3.29067 12.3708 3.71844 12.909 4.258C13.4472 4.79755 13.875 5.43089 14.1923 6.158C14.5096 6.88511 14.6679 7.66578 14.667 8.5Z" fill="#EF4343"/>
</svg>
